<?xml version="1.0" encoding="utf-8"?>
<!-- Generator: Adobe Illustrator 19.1.1, SVG Export Plug-In . SVG Version: 6.00 Build 0)  -->
<svg version="1.0" xmlns="http://www.w3.org/2000/svg" xmlns:xlink="http://www.w3.org/1999/xlink" x="0px" y="0px"
	 viewBox="0 0 512 652.043" style="enable-background:new 0 0 512 652.043;" xml:space="preserve">
<style type="text/css">
	.st0{fill:#FFFFFF;}
</style>
<g id="Layer_1">
	<g>
		<path class="st0" d="M209.509,486.782c-0.614,2.499-1.177,4.671-1.679,6.856c-2.35,10.243-1.905,10.113,4.664,18.968
			c5.697,7.68,10.589,16.023,14.599,24.74c1.833,3.984,4.309,5.946,8.512,7.02c8.569,2.19,15.716,6.971,21.848,13.394
			c2.78,2.912,5.354,5.476,10.37,5.864c14.561,1.127,26.185,12.262,26.138,26.951c-0.019,5.913-0.811,11.917-4.786,16.862
			c-2.115,2.631-1.927,6.117-3.311,9.036c-0.952,2.01-1.577,4.173-2.466,6.216c-0.609,1.401-1.512,2.784-3.257,2.649
			c-1.708-0.133-2.493-1.43-2.812-3.054c-0.136-0.694-0.474-1.348-0.788-2.205c-4.197,2.82-7.909,5.995-12.326,8.094
			c-7.763,3.688-15.844,5.164-24.344,3.472c-9.366-1.865-18.751-2.346-28.213-0.854c-1.651,0.26-2.839,1.434-4.268,1.988
			c-7.261,2.816-13.85,6.914-20.598,10.671c-8.756,4.875-18.142,5.9-27.799,5.112c-10.182-0.831-20.311-2.207-29.654-6.909
			c-1.29,2.1-1.587,4.345-1.846,6.527c-0.215,1.816-1.07,3.434-2.503,3.816c-1.217,0.324-2.544-1.1-3.393-2.307
			c-6.412-9.112-10.53-19.383-14.151-29.766c-2.581-7.401,0.581-14.099,4.447-20.62c3.602-6.075,9.45-8.916,15.014-12.303
			c0.974-0.593,2.251-0.729,3.487-0.906c2.329-0.333,4.762-0.674,5.667-3.819c0.889-3.09,2.725-5.841,5.047-8.208
			c1.664-1.696,1.748-2.894-0.069-5.245c-4.319-5.588-7.827-11.812-11.553-17.847c-8.708-14.102-16.955-28.48-24.445-43.26
			c-6.208-12.25-13.164-24.138-17.494-37.318c-3.086-9.391-3.665-19.062-4.057-28.706c-0.783-19.228,0.165-38.435,1.911-57.609
			c1.74-19.116,4.441-38.068,8.989-56.726c4.553-18.679,10.344-36.877,21.546-52.85c0.885-1.262,0.813-2.406,0.526-3.845
			c-1.459-7.303-1.312-14.34,3.262-20.79c3.973-5.602,8.204-6.796,13.953-3.156c1.976,1.252,2.647,0.314,3.849-0.98
			c11.814-12.716,23.656-25.447,38.721-34.482c9.574-5.742,18.442-12.514,27.809-18.543c12.198-7.852,25.956-10.105,40.09-9.857
			c23.577,0.414,43.899,9.137,61.077,25.262c2.73,2.562,5.626,4.949,8.318,7.549c1.145,1.106,2.273,1.317,3.72,0.998
			c13.198-2.906,26.478-1.73,39.802-1.142c8.28,0.365,16.18,1.932,24.028,4.267c7.772,2.312,13.966,7.13,19.537,12.724
			c5.844,5.868,7.785,13.538,7.028,21.391c-2.598,26.952-6.87,53.581-18.36,78.479c-1.979,4.289-4.004,8.561-6.159,12.763
			c-0.78,1.521-0.822,2.213,0.882,3.144c8.789,4.801,15.367,11.8,19.811,20.769c0.651,1.314,1.662,2.022,2.829,2.801
			c12.557,8.382,16.686,21.513,10.99,34.817c-1.786,4.171-4.618,7.498-8.921,9.104c-2.159,0.806-3.128,2.77-4.906,3.875
			c-1.268,0.788-2.367,1.859-3.664,2.584c-2.085,1.166-4.355,2.394-6.618,0.581c-2.168-1.737-1.292-4.05-0.513-6.551
			c-7.795,0.762-13.582-3.925-20.035-6.771c-9.429-4.158-19.03-8.239-29.478-8.089c-5.81,0.084-11.242-0.489-16.684-2.307
			c-9.659-3.227-16.886,0.887-23.326,7.736c-5.053,5.373-9.878,11.086-16.702,14.422c-1.152,0.563-1.569,1.401-1.828,2.584
			c-2.819,12.851-6.438,25.506-7.624,38.723c-1.301,14.496-12.139,24.951-26.423,27.439c-11.134,1.939-22.106,1.574-33.136-0.275
			C214.948,489.253,212.337,488.086,209.509,486.782z M134.878,260.019c-0.7,0.303-1.022,0.721-0.433,1.417
			c3.274,5.009,6.717,9.856,10.939,14.167c3.024,3.087,5.907,6.36,6.403,11.091c0.778,7.422-1.016,14.376-3.724,21.091
			c-4.334,10.745-7.98,21.693-10.411,33.011c-4.167,19.396,1.148,35.685,16.33,48.651c1.281,1.094,2.265,1.8,3.797,0.496
			c4.885-4.16,5.654-15.953,1.303-20.68c-2.028-2.204-3.977-4.487-6.102-6.592c-4.747-4.703-6.926-10.25-5.904-16.935
			c0.319-2.09,0.618-4.185,1.015-6.26c3.203-16.727,7.015-33.313,11.651-49.704c0.661-2.337,0.876-4.227-2.549-4.198
			c-2.247,0.019-3.24-0.951-1.762-3.251c1.481-2.304,2.808-4.708,4.169-7.088c2.867-5.013,6.422-9.559,10.617-14.81
			c-3.762,0.676-6.544,1.176-9.326,1.677c-8.694,1.565-17.413,3.715-25.83-1.118c-0.065-0.323-0.13-0.645-0.194-0.968
			c-0.076-0.018-0.152-0.036-0.228-0.054C134.721,259.98,134.801,260,134.878,260.019z M198.138,493.237
			c0.81-2.366,1.305-4.425,2.195-6.296c2.303-4.843,1.868-8.791-1.344-13.551c-5.603-8.301-7.683-18.209-9.931-27.904
			c-1.645-7.099-4.277-13.766-9.079-19.383c-6.202-7.254-13.387-13.529-21.27-18.764c-25.015-16.611-36.485-38.819-29.644-68.983
			c2.285-10.075,5.602-19.848,9.319-29.467c1-2.586,1.02-4.23-1.405-5.832c-2.396-1.583-4.303-3.752-6.246-5.881
			c-3.925-4.299-6.141-9.475-7.92-15.29c-0.688,1.003-1.129,1.596-1.516,2.223c-0.718,1.165-1.433,2.333-2.097,3.529
			c-8.054,14.491-12.679,30.214-16.054,46.289c-5.662,26.972-10.073,54.103-9.538,81.838c0.316,16.367,1.168,32.663,3.877,48.816
			c1.744,10.402,6.592,19.726,10.821,29.217c9.934,22.294,23.099,42.875,34.558,64.364c0.365,0.684,0.546,1.998,2.063,1.761
			c0-3.776-0.055-7.523,0.017-11.269c0.063-3.267,0.664-6.446,2.194-9.374c0.453-0.868,1.065-1.914,2.236-1.612
			c1.185,0.305,0.697,1.471,0.613,2.24c-0.821,7.517,1.512,14.469,3.58,21.513c0.828,2.821,1.873,2.907,4.443,2.024
			c7.989-2.743,16.163-4.22,24.573-1.743c1.927,0.568,3.36,0.168,4.898-1.491c7.196-7.764,15.902-13.327,26.334-15.375
			c4.197-0.824,3.844-2.055,2.531-5.188c-6.553-15.644-14.334-30.645-23.111-45.141c-1.629-2.691-2.685-5.445-1.88-8.944
			C194.449,487.455,195.437,490.65,198.138,493.237z M333.876,351.107c1.604-0.927,2.836-1.752,4.159-2.385
			c7.535-3.609,15.497-4.934,22.804-0.463c4.147,2.538,6.569,0.904,9.465-1.02c1.9-1.262,2.928-3.348,3.969-5.354
			c14.399-27.74,20.899-57.636,23.897-88.435c0.781-8.022-2.014-14.763-9.495-18.84c-3.93-2.142-7.924-4.111-12.318-5.246
			c-7.109-1.837-14.267-3.36-21.576-4.09c-8.687-0.867-17.353-2.009-26.132-1.238c-17.12,1.502-33.938,5.297-51.074,6.654
			c-0.944,0.075-2.327,0.716-2.58-0.562c-0.255-1.288,1.235-1.113,2.127-1.374c8.833-2.579,17.659-5.182,26.727-7.849
			c-6.376-6.207-12.949-11.572-20.071-16.164c-23.47-15.131-47.874-18.539-73.57-5.579c-6.501,3.279-11.906,8.145-18.188,11.698
			c-18.071,10.221-34.264,22.708-47.159,39.158c-0.895,1.142-2.745,2.538-2.166,3.596c0.757,1.383,2.938,1.409,4.675,1.378
			c0.374-0.007,0.751-0.011,1.122-0.057c6.958-0.863,13.56-2.95,20.124-5.385c12.444-4.617,23.988-11.32,36.905-14.917
			c25.121-6.995,49.49-5.564,73.187,5.253c9.916,4.526,19.488,9.73,30.111,12.663c9.025,2.491,17.245,2.717,24.036-4.94
			c0.401-0.452,0.994-0.745,1.525-1.067c3.531-2.139,6.876-1.65,9.098,1.808c3.902,6.072,5.609,12.705,4.004,19.934
			c-1.404,6.323-5.474,11.373-8.095,17.063c-3.076,6.677-7.51,11.71-13.154,15.844c-2.855,2.091-3.081,3.974-2.127,7.142
			C328.288,322.22,332.674,336.084,333.876,351.107z M312.724,288.82c0.236-1.029,0.516-1.628,0.486-2.211
			c-0.258-4.896,2.168-7.861,6.129-10.627c5.502-3.842,8.815-9.755,12.12-15.629c-5.09,2.889-10.419,3.635-15.99,2.884
			c-2.342-0.316-4.656-0.839-6.978-1.289c-2.455-0.476-3.731,0.299-3.036,2.961c0.305,1.169,1.379,2.607,0.249,3.411
			c-1.399,0.995-2.781-0.358-4.025-1.139c-1.223-0.768-1.742-2.064-2.364-3.281c-1.15-2.249-2.592-4.289-4.695-5.735
			c-25.938-17.832-54.092-23.698-84.88-15.947c-22.176,5.583-36.955,18.58-41.209,41.564c-1.683,9.092-1.913,18.518,5.531,25.962
			c3.543,3.543,7.483,6.583,11.716,9.266c10.364,6.57,21.72,11.01,33.041,15.539c1.256,0.502,2.512,1.139,3.572,1.965
			c1.485,1.157,0.823,2.712,0.34,4.133c-0.573,1.686-1.692,1.078-2.691,0.533c-2.035-1.112-1.766,0.497-1.714,1.517
			c0.327,6.486-1.323,12.61-3.418,18.633c-0.916,2.632-0.293,3.863,2.558,4.398c9.512,1.785,19.084,2.285,28.71,1.584
			c3.218-0.234,6.424-0.871,9.464-2.06c2.386-0.933,3.509-2.021,2.011-4.976c-2.305-4.547-3.861-9.429-2.826-14.747
			c0.295-1.515,0.169-3.132-0.872-4.474c-1.316,0.484-2.178,2.541-3.621,1.238c-1.218-1.1-0.152-2.654,0.362-3.83
			c0.587-1.341,1.495-2.589,2.457-3.711c2.833-3.305,6.644-5.197,10.533-6.903c12.588-5.523,24.873-11.538,35.197-20.884
			c1.096-0.992,2.443-1.708,3.685-2.534c0.849-0.565,1.81-1.133,2.734-0.376c0.733,0.6,0.608,1.609,0.426,2.47
			c-0.282,1.34-0.555,2.69-1.735,3.632c-1.519,1.213-2.466,2.735-2.7,4.743c-0.161,1.387-0.841,2.71-2.041,3.452
			c-5.053,3.127-5.967,8.331-6.746,13.503c-1.078,7.159-5.093,11.662-11.785,14.036c-3.289,1.167-6.684,1.026-9.985,0.503
			c-3.319-0.526-4.558,1.157-5.213,3.843c-0.672,2.759,0.816,4.138,3.246,4.977c6.716,2.317,13.488,4.662,20.526,5.461
			c6.223,0.706,9.346,3.994,11.654,9.417c2.182,5.128,3.123,10.61,5.121,16.102c5.656-5.033,9.836-10.739,13.644-16.76
			c2.143-3.39,4.19-6.813,4.563-10.926c1.304-14.369-0.66-28.324-5.316-41.944c-3.58-10.474-6.973-21.025-13.568-30.14
			c-0.671-0.928-1.402-2.061-0.48-3.038c1.16-1.228,2.34-0.098,3.314,0.556C309.976,285.117,311.259,286.807,312.724,288.82z
			 M168.484,621.523c0.023-1.412-1.018-1.245-1.563-1.621c-11.136-7.672-17.857-22.602-9.133-36.535
			c4.3-6.868,11.24-8.384,17.845-3.722c6.703,4.731,7.242,13.077,1.213,18.573c-0.55,0.501-1.043,1.072-1.518,1.646
			c-5.195,6.275-5.755,13.541-4.647,21.307c1.235-0.31,2.355-0.477,3.39-0.869c12.234-4.633,21.538-11.881,23.042-26.023
			c0.078-0.731-0.018-1.608,0.873-1.869c0.897-0.262,1.683,0.019,2.232,0.878c0.468,0.733,1.008,1.423,1.547,2.107
			c10.737,13.615,28.892,14.057,40.017,6.903c3.844-2.472,4.73-1.641,6.704,1.635c5.27,8.747,15.835,11.571,25.41,7.043
			c-1.464-1.841-3.432-2.93-5.303-4.092c-4.222-2.622-6.984-6.202-8.016-11.144c-0.973-4.661,1.974-10.888,6.628-13.594
			c4.492-2.611,9.112-1.902,13.29,1.889c3.223,2.924,5.222,6.572,6.517,11.776c2.177-15.498-10.582-27.715-24.272-24.156
			c-4.057,1.055-5.62-0.071-7.443-3.383c-5.31-9.648-13.22-16.331-24.395-17.671c-13.986-1.678-26.245,3.033-34.855,13.963
			c-4.586,5.822-7.866,6.036-14.276,3.63c-18.008-6.76-35.68,2.959-38.398,20.355c-0.473,3.026-2.573,3.631-5.173,3.691
			c-7.024,0.162-13.037,2.722-18.165,7.55c-5.462,5.142-8.145,13.307-5.916,19.31c0.784-2.027,1.289-3.91,2.198-5.572
			c2.386-4.369,4.609-9.028,10.452-9.679c5.339-0.594,9.647,1.638,12.204,6.254c2.34,4.224,1.746,10.002-1.465,13.99
			c-2.252,2.796-4.944,5.178-6.639,8.499c-1.492,2.924-0.387,3.308,2.146,3.488c8.421,0.597,14.729-3.075,18.473-11.643
			c1.39-3.18,3.201-3.673,6.078-3.042C161.215,622.195,164.859,622.03,168.484,621.523z M177.675,376.038
			c1.714,0,2.331-0.063,2.932,0.01c4.417,0.541,8.965,0.368,13.14,2.261c1.196,0.542,2.198,1.42,1.732,2.911
			c-0.405,1.297-1.584,1.459-2.763,1.326c-0.857-0.096-1.705-0.283-2.554-0.448c-3.761-0.73-7.431-2.037-11.34-1.812
			c-0.81,0.047-2.025-0.376-2.235,0.741c-0.373,1.989,0.029,3.963,0.881,5.822c0.833,1.816,2.371,0.944,3.6,0.849
			c5.635-0.434,11.186-0.223,16.559,1.743c1.486,0.543,2.28,1.634,1.855,3.188c-0.468,1.713-1.718,1.656-3.244,1.282
			c-3.373-0.825-6.769-1.652-10.204-2.104c-7.682-1.009-7.727-0.905-5.418,6.481c2.835,9.067,8.512,15.254,18.285,16.27
			c13.01,1.352,24.633-3.675,36.065-8.953c2.657-1.227,3.907-7.409,1.904-8.451c-5.845-3.042-9.983-8.588-16.519-10.664
			c-4.183-1.328-7.867-3.894-10.21-7.799c-1.565-2.609-3.725-4.187-6.503-5.274c-3.503-1.372-7.093-2.401-10.802-2.794
			C187.374,370.045,182.3,370.944,177.675,376.038z M370.472,386.706c-0.302-1.522-0.537-2.597-0.728-3.681
			c-0.824-4.698,1.205-8.133,5.397-9.161c3.478-0.853,7.582,1.823,8.865,5.789c0.784,2.425,0.751,4.796,0.179,7.331
			c-1.531,6.778-0.789,7.385,6.111,5.679c0.121-0.03,0.241-0.072,0.353-0.125c1.845-0.885,2.38-0.32,2.249,1.691
			c-0.218,3.343,1.301,5.903,4.343,8.106c0.364-4.155,2.964-6.212,6.264-6.719c3.205-0.492,4.446,2.482,5.678,5.062
			c2.123-2.734,2.42-5.498,1.348-8.581c-1.397-4.017-3.922-7.09-7.178-9.75c-2.144-1.752-3.911-3.373-5.264,0.634
			c-0.283,0.837-1.063,1.573-2.024,1.28c-1.189-0.362-0.635-1.381-0.51-2.201c0.149-0.974,0.493-1.989,0.349-2.924
			c-1.292-8.408-5.88-14.634-12.998-19.064c-6.225-3.873-12.514-3.522-18.696,0.125c-1.551,0.915-2.39,0.707-3.208-0.913
			c-3.57-7.072-8.424-7.643-14.215-6.627c-4.147,0.727-8.1,2.604-11.552,4.965c-1.728,1.182-1.265,4.095-1.737,6.24
			c-0.402,1.826-0.634,3.71-1.244,5.464c-0.973,2.8,0.524,4.498,2.642,5.4c2.451,1.044,2.286-1.68,2.919-2.871
			c1.5-2.82,3.785-3.809,6.772-3.497c2.855,0.299,4.679,1.805,5.723,4.586c0.976,2.601,0.101,5.084-0.193,7.734
			c4.116-0.056,7.233-1.453,9.755-5.165C361.937,380.888,365.108,384.692,370.472,386.706z M288.618,386.615
			c1.107,0.087,1.871,0.064,2.598,0.219c4.181,0.891,3.029-2.506,3.494-4.444c0.657-2.738-1.433-2.158-2.967-2.257
			c-2.895-0.186-5.687,0.539-8.521,0.884c-1.643,0.2-3.595,0.507-4.015-1.559c-0.439-2.157,1.461-2.954,3.185-3.419
			c2.794-0.753,5.675-0.732,8.549-0.785c1.01-0.018,2.451,0.854,2.975-0.551c0.503-1.35-0.198-2.647-1.183-3.732
			c-0.866-0.954-1.89-1.579-3.108-1.975c-4.068-1.323-8.217-1.848-12.501-1.656c-3.201,0.143-4.973,1.539-5.724,4.729
			c-1.021,4.339-2.931,8.562-7.047,10.535c-6.764,3.243-11.249,9.351-17.608,13.059c-2.947,1.719-3.573,5.086-3.359,8.239
			c0.204,3.017,3.188,3.318,5.33,3.858c6.639,1.674,13.425,3.371,20.242,3.105c15.522-0.606,19.341-4.843,22.795-17.245
			c0.712-2.556-0.167-3.082-2.375-2.749c-3.313,0.5-6.612,1.098-9.934,1.519c-1.163,0.148-2.743,0.437-3.112-1.219
			c-0.385-1.731,0.646-2.796,2.283-3.324C281.992,386.758,285.48,386.66,288.618,386.615z M209.322,460.85
			c-1.638,9.997,5.339,16.713,13.821,18.404c7.907,1.576,15.973,1.462,23.879,0.455c12.672-1.614,17.394-6.414,19.35-18.901
			c1.656-10.573,3.289-21.134,6.033-31.496c0.666-2.515,0.959-5.126,1.533-7.668c0.507-2.246-1.035-3.106-2.597-3.297
			c-1.775-0.217-1.076,1.605-1.173,2.492c-0.433,3.922-1.872,7.436-3.852,10.795c-2.014,3.418-4.34,6.773-4.464,10.912
			c-0.132,4.389-1.085,8.647-1.712,12.955c-1.262,8.671-5.133,12.62-13.587,13.973c-3.953,0.633-7.955,1.117-11.943,0.728
			C225.561,469.321,215.972,469.844,209.322,460.85z M165.031,312.097c-0.397,2.67-0.12,4.857,0.399,7.063
			c0.563,2.394-0.401,4.687-0.72,7.019c-0.49,3.577-1.194,7.127-1.579,10.714c-0.729,6.787,2.998,12.824,9.421,15.257
			c5.497,2.082,11.206,3.373,17.085,3.686c3.754,0.2,7.473-0.241,10.885-1.972c1.118-0.567,3.106-0.831,2.611-2.609
			c-0.438-1.575-1.886-2.582-3.75-2.503c-1.372,0.058-2.743,0.13-4.115,0.166c-10.146,0.265-17.132-4.335-20.791-13.817
			c-1.391-3.603-2.327-7.35-2.644-11.217C171.437,319.076,169.724,315.026,165.031,312.097z M257.252,433.462
			c3.505-4.195,5.392-8.097,6.814-12.24c1.379-4.02,1.037-4.411-3.051-4.972c-6.157-0.845-12.344-1.647-18.225-3.778
			c-2.373-0.86-4.539-0.822-6.849,0.129c-9.573,3.945-19.462,6.782-29.736,8.183c-0.918,0.125-1.581,0.15-1.887,1.295
			c-1.066,3.985,1.776,12.711,4.987,15.11c1.458,1.09,2.085,1.003,2.177-1.018c0.231-5.053,1.803-9.726,4.232-14.154
			c0.745-1.358,1.521-2.075,2.823-0.888c1.766,1.61,3.785,1.529,5.96,1.401c5.608-0.33,11.226-0.481,16.839-0.744
			c4.628-0.217,9.921,1.348,12.25-5.58c1.005,2.199,1.618,3.414,2.125,4.672C257.211,424.604,257.194,428.57,257.252,433.462z
			 M220.179,372.312c-1.794,0.418-4.704-0.097-5.298,2.205c-0.637,2.469,2.565,2.367,4.002,3.488
			c0.271,0.212,0.708,0.215,1.07,0.307c6.179,1.568,12.084,3.266,14.709,10.256c0.939,2.499,3.98,2.67,6.598,2.258
			c2.352-0.37,3.069-1.925,3.537-4.12c0.711-3.338,3.067-5.355,6.458-5.886c1.959-0.307,3.967-0.291,5.95-0.447
			c3.46-0.272,6.571-3.245,6.727-6.391c0.085-1.717-0.44-3.166-2.375-3.073c-7.386,0.354-14.763,0.932-20.041,7.146
			c-0.953,1.122-1.73,1.404-2.724,0.376C233.721,373.183,226.847,373.497,220.179,372.312z M236.108,447.707
			c9.029,0.077,12.966-4.601,11.491-12.212c-0.097-0.499-0.088-1.103-0.654-1.152c-2.362-0.207-4.743-0.542-7.093-0.406
			c-1.779,0.103-1.271,2.18-1.967,3.272c-0.647,1.016-0.616,2.757-2.01,2.926c-1.691,0.205-1.989-1.577-2.647-2.717
			c-0.311-0.538-0.518-1.136-0.805-1.689c-0.901-1.736-8.584-3.144-10.018-1.812c-0.217,0.202-0.283,0.631-0.311,0.964
			c-0.324,3.87,3.266,10.669,6.713,11.755C231.489,447.479,234.436,447.483,236.108,447.707z M217.306,445.819
			c-1.949,4.765-1.653,10.28,0.424,13.541c1.902,2.986,4.328,3.604,7.02,1.316c1.271-1.079,2.017-0.345,2.976-0.051
			c4.34,1.331,8.753,2.428,13.122,0.514c1.436-0.629,2.064-0.757,3.428,0.234c2.745,1.995,5.527,1.031,6.943-2.079
			c1.563-3.433,1.924-7.027,1.301-11.213c-2.415,1.576-3.091,4.002-4.75,5.554c-1.171,1.095-2.419,2.959-3.935,2.427
			c-5.107-1.792-10.351-0.414-15.431-0.586c-5.166-0.175-6.943-3.159-9.406-6.14C218.331,448.53,218.049,447.404,217.306,445.819z
			 M203.287,337.12c-1.542-0.771-2.778-1.757-4.55-0.811c-7.906,4.217-12.986,1.893-14.85-6.802
			c-0.564-2.629-3.095-3.929-4.716-4.068c-1.401-0.12-0.483,2.845-0.49,4.438c-0.004,0.842,0.301,1.718,0.609,2.524
			c2.123,5.561,6.022,9.035,12.008,9.838C196.207,342.897,200.329,341.525,203.287,337.12z M163.059,608.747
			c0.284-6.955,1.767-13.488,5.859-19.171c1.492-2.072,2.449-4.029-0.026-5.714c-2.45-1.668-4.514-0.565-5.803,1.861
			C159.045,593.337,158.655,601.02,163.059,608.747z M281.229,606.82c0-2.962,0.334-5.972-0.078-8.876
			c-0.626-4.416-1.625-8.848-5.333-11.925c-1.727-1.433-3.669-1.489-5.458-0.057c-1.872,1.499-1.904,3.38-0.662,5.266
			c0.812,1.234,1.691,2.491,2.785,3.46C276.275,598.044,279.017,602.072,281.229,606.82z M287.09,324.961
			c-1.974,1.424-4.751,1.624-4.401,5.153c0.365,3.681-1.74,6.128-5.019,7.503c-3.209,1.345-6.3,1.078-9.094-1.161
			c-2.384-1.91-2.382-1.912-5.016-0.493c3.691,5.097,9.72,6.912,15.499,4.665C285.443,338.147,287.898,333.466,287.09,324.961z
			 M121.593,633.432c0.901-6.898,2.39-13.44,7.461-18.664c1.299-1.338,1.238-3.015-0.128-4.34c-1.435-1.393-2.75-0.48-3.921,0.552
			c-0.649,0.572-1.346,1.16-1.791,1.883C119.174,619.417,119.226,626.326,121.593,633.432z M139.089,283.473
			c-6.32-6.928-8.991-15.028-11.377-23.85C123.565,269.916,129.761,282.874,139.089,283.473z M337.843,257.688
			c-2.008,8.121-4.699,15.742-10.394,22.147C336.055,279.7,342.421,265.979,337.843,257.688z M339.283,390.282
			c1.272-5.817,3.082-10.413,5.203-14.897c0.6-1.268,1.308-2.686-0.303-3.561c-1.447-0.786-2.289,0.515-2.898,1.58
			C338.405,378.438,337.348,383.732,339.283,390.282z M376.84,395.752c3.091-3.993,4.154-8.537,3.302-13.488
			c-0.255-1.483-0.968-3.162-2.847-2.776c-2.079,0.428-1.113,2.132-0.777,3.336C377.712,387.101,377.637,391.371,376.84,395.752z
			 M402.283,412.232c2.295-2.947,3.783-6.099,3.018-9.897c-0.213-1.055-0.19-2.602-1.712-2.37c-1.374,0.209-1.321,1.513-0.995,2.707
			C403.47,405.882,403.175,409.051,402.283,412.232z"/>
		<path class="st0" d="M134.882,260.021c-0.081-0.021-0.161-0.041-0.242-0.062c0.076,0.018,0.152,0.036,0.225,0.053
			C134.862,260.011,134.882,260.021,134.882,260.021z"/>
		<path class="st0" d="M134.446,261.437c-0.589-0.696-0.267-1.115,0.435-1.417c0.002,0.001-0.018-0.009-0.015-0.008
			c0.068,0.324,0.132,0.647,0.197,0.969C134.857,261.133,134.651,261.285,134.446,261.437z"/>
		<path class="st0" d="M101.345,413.67c-1.052-21.595,2.259-42.705,7.432-63.578c0.543-2.191,0.66-5.597,3.391-5.499
			c2.436,0.087,2.208,3.377,2.709,5.51c1.407,5.988,1.253,12.125,1.751,18.189c0.884,10.761,5.115,19.829,12.541,27.571
			c7.434,7.75,15.162,15.195,23.005,22.521c4.995,4.665,8.105,10.331,3.116,17.456c-0.775,1.107-1.259,2.417-1.89,3.627
			c-2.317,4.448-2.707,8.644,1.087,12.658c1.1,1.163,2.956,2.698,1.974,4.487c-1.175,2.141-3.72,2.362-5.966,2.304
			c-7.951-0.205-14.806,2.569-21.087,7.242c-7.604,5.657-8.408,13.373-6.763,21.813c2.35,12.058,7.777,22.996,12.611,34.148
			c1.377,3.177,2.619,6.413,3.866,9.644c0.4,1.037,0.912,2.522-0.086,3.114c-1.42,0.843-2.157-0.844-2.833-1.714
			c-3.442-4.433-6.176-9.323-8.776-14.28c-9.238-17.613-17.679-35.561-22.637-54.934c-2.553-9.977-2.697-20.253-3.364-30.437
			C100.995,426.924,101.345,420.286,101.345,413.67z"/>
		<path class="st0" d="M364.591,261.021c-7.202,0.236-8.76-0.963-10.319-8.158c-0.474-2.187-0.971-4.347-1.651-6.491
			c-1.559-4.917-5.041-7.47-9.814-8.646c-1.135-0.28-3.08-0.025-2.899-1.535c0.178-1.479,2.088-1.319,3.436-1.351
			c9.677-0.234,18.681,2.508,27.452,6.244c1.593,0.679,3.129,1.494,4.686,2.257c6.61,3.24,9.677,8.425,8.455,15.807
			c-2.025,12.228-3.364,24.604-7.552,36.379c-0.664,1.866-1.449,3.717-2.427,5.433c-0.614,1.078-0.966,3.077-2.677,2.571
			c-1.41-0.417-0.835-2.186-0.769-3.329c0.265-4.608,0.631-9.212,1.053-13.809c0.534-5.827,1.281-11.631,1.206-17.507
			C372.674,261.422,372.074,260.777,364.591,261.021z"/>
		<path class="st0" d="M235.435,337.028c-5.064-12.339-16.949-15.228-27.089-20.464c-2.757-1.424-5.724-2.443-8.471-3.883
			c-6.897-3.614-7.66-10.179-1.792-15.209c4.566-3.913,9.738-6.941,14.966-9.864c1.065-0.595,2.653-1.035,2.254-2.482
			c-0.34-1.235-1.875-1.512-3.162-1.527c-7.9-0.091-15.127,2.568-22.2,5.658c-3.528,1.541-6.86,3.529-10.294,5.289
			c-1.075,0.551-2.169,1.537-3.438,0.635c-1.229-0.874-0.888-2.266-0.689-3.466c1.335-8.077,5.132-15.094,10.007-21.459
			c9.314-12.163,21.231-20.542,36.428-23.799c6.669-1.429,13.366-1.452,20.066-0.31c1.265,0.216,2.874,0.239,3.174,2.029
			c0.255,1.526-1.017,2.144-1.924,2.958c-0.089,0.08-0.217,0.126-0.334,0.165c-9.666,3.22-10.623,10.972-10.534,19.572
			c0.119,11.51,1.636,22.881,2.752,34.297c0.922,9.426,1.872,18.855,1.7,28.347C236.835,334.601,237.076,335.798,235.435,337.028z"
			/>
		<path class="st0" d="M210.69,571.901c0.001-8.031,5.111-14.133,12.164-14.857c7.523-0.772,13.376,4.02,14.999,12.001
			c0.72,3.541,0.434,6.89-0.654,10.27c-2.325,7.222-6.394,13.436-11.251,19.138c-2.205,2.589-3.335,2.269-4.069-0.905
			c-1.274-5.505-3.009-10.565-7.451-14.614C211.311,580.092,210.519,575.831,210.69,571.901z M225.667,590.61
			c0.486-2.431,1.247-4.845,1.4-7.297c0.333-5.331,0.946-10.725-1.149-15.898c-0.75-1.853-1.941-3.428-4.046-3.298
			c-1.93,0.119-3.394,1.403-4.283,3.209c-1.446,2.941-0.566,5.892,1.123,8.054C222.285,579.951,223.891,585.201,225.667,590.61z"/>
	</g>
</g>
<g id="Layer_2">
	<g>
		<polygon class="st0" points="81,144.049 133,144.049 133,100.049 81,100.049 81,58.049 126,58.049 126,72.049 180,72.049 
			180,10.049 10,10.049 10,58.049 27,58.049 27,180.049 11,180.049 11,227.049 96,227.049 96,180.049 81,180.049 		"/>
		<path class="st0" d="M244.146,182.853c17.79,0.313,33.723,5.361,47.854,14.745v-17.549h-15v-122h15v-48h-86v48h16v122h-16v11.474
			C217.708,184.636,230.757,182.618,244.146,182.853z"/>
		<path class="st0" d="M486.58,186.108l0.02-128.059H502V10.173l-80,0.146v47.73h10.028l-0.053,117.639l-0.02,0.019l-4.49,4.511
			l-0.013-0.17h-35.231L388,175.759V58.049h9v-48h-79v48h15.088l0.007,128.059l28.461,29.742c6.665,0.645,13.12,2.028,19.536,3.937
			c5.078,1.511,9.479,4.095,13.476,7.262h52.781L486.58,186.108z"/>
		<path class="st0" d="M106,170.049H92v-15.105l51,0.106V89.416l-51-0.099V68.049h23v15h75v-83H0v68.293l16-0.006V170.04l-16,0.053
			v66.956h106V170.049z M101,232.049H6v-56.66l16-0.053V63.012L6,63.025V5.049h179v72h-64v-14H86v31.57l52,0.106v54.995l-52-0.099
			v25.428h15V232.049z"/>
		<path class="st0" d="M201,175.049h16v-112h-16v-58h96v58h-16v112h16v26.128c1.691,1.286,3.364,2.617,5,4.033v-35.161h-15v-102h15
			v-68H196v68h16v102h-16v28.056c1.659-1.141,3.324-2.273,5-3.388V175.049z"/>
		<path class="st0" d="M411,0.01v68.193l10.805-0.071l-0.02,101.917H398v-102h10v-68H308v68h15V191.1l22.859,23.891
			c2.46,0.102,4.923,0.226,7.387,0.347L328,188.971V63.049h-15v-58h89v58h-9v112h34.102l-0.139-112.398L416,62.88V5.326l91-0.01
			v57.733h-16v125.929l-40.398,43.071h-50.441c0.156,0.154,0.312,0.306,0.467,0.461c1.409,1.415,2.586,2.937,3.559,4.539h48.703
			L497,191.094V68.049h15V0L411,0.01z"/>
	</g>
</g>
</svg>
