<?xml version="1.0" encoding="UTF-8" standalone="no"?>
<!-- Created with Inkscape (http://www.inkscape.org/) -->
<svg xmlns:dc="http://purl.org/dc/elements/1.1/" xmlns:cc="http://creativecommons.org/ns#" xmlns:rdf="http://www.w3.org/1999/02/22-rdf-syntax-ns#" xmlns:svg="http://www.w3.org/2000/svg" xmlns="http://www.w3.org/2000/svg" xmlns:sodipodi="http://sodipodi.sourceforge.net/DTD/sodipodi-0.dtd" xmlns:inkscape="http://www.inkscape.org/namespaces/inkscape" version="1.1" width="150" height="150.16821" id="svg2" xml:space="preserve" inkscape:version="0.48.2 r9819" sodipodi:docname="NSF Logo.svg"><sodipodi:namedview pagecolor="#ffffff" bordercolor="#666666" borderopacity="1" objecttolerance="10" gridtolerance="10" guidetolerance="10" inkscape:pageopacity="0" inkscape:pageshadow="2" inkscape:window-width="1322" inkscape:window-height="923" id="namedview3878" showgrid="false" inkscape:zoom="0.62244365" inkscape:cx="326.39831" inkscape:cy="326.76432" inkscape:window-x="81" inkscape:window-y="0" inkscape:window-maximized="0" inkscape:current-layer="g10" fit-margin-top="0" fit-margin-left="0" fit-margin-right="0" fit-margin-bottom="0"/><metadata id="metadata8"><rdf:RDF><cc:Work rdf:about=""><dc:format>image/svg+xml</dc:format><dc:type rdf:resource="http://purl.org/dc/dcmitype/StillImage"/><dc:title/></cc:Work></rdf:RDF></metadata><defs id="defs6"/><g transform="matrix(1.25,0,0,-1.25,-34.29212,182.60956)" id="g10"><g transform="matrix(0.02297806,0,0,0.02297806,21.129965,19.989562)" id="g12" style="fill:#e2e2e4;fill-opacity:1;stroke:none"><path d="m 1249.34,2321.06 c 106.38,12.4 156.1,24.87 156.1,141.96 l 0,840.85 c -99.31,122.38 -127.73,127.81 -150.75,127.81 l 0,44.28 374.29,0 615.59,-757.53 3.51,0 0,537.52 c 0,106.41 -21.28,165.04 -164.98,175.73 l 0,44.28 381.41,0 0,-44.28 c -127.71,-16.07 -138.43,-56.89 -138.43,-141.94 l 0,-1044.95 -49.57,0 -789.44,961.51 -3.58,0 0,-709.66 c 0,-127.74 37.31,-161.35 168.56,-175.58 l 0,-44.36 -402.71,0 0,44.36" id="path14" style="fill:#e2e2e4;fill-opacity:1;fill-rule:nonzero;stroke:none" inkscape:connector-curvature="0"/><path d="m 1249.34,2321.06 c 106.38,12.4 156.1,24.87 156.1,141.96 l 0,840.85 c -99.31,122.38 -127.73,127.81 -150.75,127.81 l 0,44.28 374.29,0 615.59,-757.53 3.51,0 0,537.52 c 0,106.41 -21.28,165.04 -164.98,175.73 l 0,44.28 381.41,0 0,-44.28 c -127.71,-16.07 -138.43,-56.89 -138.43,-141.94 l 0,-1044.95 -49.57,0 -789.44,961.51 -3.58,0 0,-709.66 c 0,-127.74 37.31,-161.35 168.56,-175.58 l 0,-44.36 -402.71,0 0,44.36 z" id="path16" style="fill:#e2e2e4;fill-opacity:1;stroke:none" inkscape:connector-curvature="0"/><path d="m 3310.41,3119.4 c -31.95,124.14 -138.38,328.17 -347.68,328.17 -92.22,0 -189.85,-53.23 -189.85,-168.54 0,-95.75 33.71,-134.79 182.78,-209.27 l 260.74,-129.48 c 60.28,-30.26 195.19,-133.16 195.19,-326.48 0,-156.12 -113.62,-370.84 -439.95,-370.84 -168.59,0 -248.43,60.34 -303.36,60.34 -37.34,0 -46.2,-31.9 -53.26,-60.34 l -51.37,0 0,438.2 51.37,0 c 35.51,-179.12 138.39,-379.63 363.7,-379.63 212.89,0 221.77,175.61 221.77,198.71 0,118.89 -83.4,161.41 -198.71,216.46 l -118.85,56.75 c -303.42,145.51 -303.42,298.03 -303.42,379.64 0,108.2 55.03,349.39 392.13,349.39 141.93,0 225.24,-58.46 276.72,-58.46 40.78,0 49.61,26.61 58.48,60.3 l 53.26,0 0,-384.92 -49.69,0" id="path18" style="fill:#e2e2e4;fill-opacity:1;fill-rule:nonzero;stroke:none" inkscape:connector-curvature="0"/><path d="m 3310.41,3119.4 c -31.95,124.14 -138.38,328.17 -347.68,328.17 -92.22,0 -189.85,-53.23 -189.85,-168.54 0,-95.75 33.71,-134.79 182.78,-209.27 l 260.74,-129.48 c 60.28,-30.26 195.19,-133.16 195.19,-326.48 0,-156.12 -113.62,-370.84 -439.95,-370.84 -168.59,0 -248.43,60.34 -303.36,60.34 -37.34,0 -46.2,-31.9 -53.26,-60.34 l -51.37,0 0,438.2 51.37,0 c 35.51,-179.12 138.39,-379.63 363.7,-379.63 212.89,0 221.77,175.61 221.77,198.71 0,118.89 -83.4,161.41 -198.71,216.46 l -118.85,56.75 c -303.42,145.51 -303.42,298.03 -303.42,379.64 0,108.2 55.03,349.39 392.13,349.39 141.93,0 225.24,-58.46 276.72,-58.46 40.78,0 49.61,26.61 58.48,60.3 l 53.26,0 0,-384.92 -49.69,0 z" id="path20" style="fill:#e2e2e4;fill-opacity:1;stroke:none" inkscape:connector-curvature="0"/><path d="m 3515.99,3475.97 1005.73,0 0,-356.58 -42.5,0 c -39.01,184.49 -86.93,296.22 -392.11,296.22 -95.78,0 -127.65,-7.08 -127.65,-83.38 l 0,-411.53 c 219.95,-3.55 246.6,122.37 271.43,264.3 l 44.29,0 0,-599.62 -44.29,0 c -19.48,145.47 -47.81,274.98 -271.43,274.98 l 0,-413.3 c 0,-117.14 70.94,-120.68 195.16,-126 l 0,-44.35 -638.63,0 0,44.35 c 101.14,10.64 156.06,15.99 156.06,126 l 0,858.65 c 0,117 -72.76,120.53 -156.06,125.97 l 0,44.29" id="path22" style="fill:#e2e2e4;fill-opacity:1;fill-rule:nonzero;stroke:none" inkscape:connector-curvature="0"/><path d="m 3515.99,3475.97 1005.73,0 0,-356.58 -42.5,0 c -39.01,184.49 -86.93,296.22 -392.11,296.22 -95.78,0 -127.65,-7.08 -127.65,-83.38 l 0,-411.53 c 219.95,-3.55 246.6,122.37 271.43,264.3 l 44.29,0 0,-599.62 -44.29,0 c -19.48,145.47 -47.81,274.98 -271.43,274.98 l 0,-413.3 c 0,-117.14 70.94,-120.68 195.16,-126 l 0,-44.35 -638.63,0 0,44.35 c 101.14,10.64 156.06,15.99 156.06,126 l 0,858.65 c 0,117 -72.76,120.53 -156.06,125.97 l 0,44.29 z" id="path24" style="fill:#e2e2e4;fill-opacity:1;stroke:none" inkscape:connector-curvature="0"/><path d="m 2885.57,1076.65 c -992.45,0 -1797.02,804.48 -1797.02,1796.95 0,992.5 804.57,1797.02 1797.02,1797.02 992.41,0 1796.95,-804.52 1796.95,-1797.02 0,-992.47 -804.54,-1796.95 -1796.95,-1796.95 m -0.02,3630.83 c -1012.82,0 -1833.87,-821.03 -1833.87,-1833.86 0,-1012.77 821.05,-1833.82 1833.87,-1833.82 1012.79,0 1833.84,821.05 1833.84,1833.82 0,1012.83 -821.05,1833.86 -1833.84,1833.86" id="path26" style="fill:#e2e2e4;fill-opacity:1;fill-rule:nonzero;stroke:none" inkscape:connector-curvature="0"/><path d="m 2885.57,1076.65 c -992.45,0 -1797.02,804.48 -1797.02,1796.95 0,992.5 804.57,1797.02 1797.02,1797.02 992.41,0 1796.95,-804.52 1796.95,-1797.02 0,-992.47 -804.54,-1796.95 -1796.95,-1796.95 z m -0.02,3630.83 c -1012.82,0 -1833.87,-821.03 -1833.87,-1833.86 0,-1012.77 821.05,-1833.82 1833.87,-1833.82 1012.79,0 1833.84,821.05 1833.84,1833.82 0,1012.83 -821.05,1833.86 -1833.84,1833.86 z" id="path28" style="fill:#e2e2e4;fill-opacity:1;stroke:none" inkscape:connector-curvature="0"/><path d="m 4978.46,3085.4 -21.93,-28.41 c -43.85,-42.73 -113.95,-28.42 -171.15,-23.76 -37.55,9.26 -75.09,17.96 -112.45,26.87 5.05,-48.97 8.08,-98.53 9.11,-148.58 0.89,-0.56 1.8,-1.08 2.7,-1.64 9.8,-21.25 6.96,-36.65 -2.39,-49.03 -0.36,-52.34 -2.97,-104.15 -7.72,-155.33 45.28,11.13 90.98,20.92 137.07,28.98 48.33,4.83 101.05,9.44 136.01,-28.34 39.65,-66.58 25.57,-174.49 17.65,-251.26 -0.48,-4.9 -1.22,-9.71 -1.86,-14.58 -12.92,-57.62 -28.99,-116.63 -60.02,-169.46 l -31.13,-17.99 c -56.87,-22.62 -116.29,17.52 -167.24,43.63 -31.77,23.38 -63.77,46.23 -95.5,69.22 -14.02,-47.67 -29.94,-94.53 -47.72,-140.47 0.97,-1.35 1.98,-2.67 2.94,-4.03 1.01,-24.62 -8.4,-37.92 -22.94,-45.64 -20.03,-47.5 -42.15,-93.9 -66.06,-139.2 46.67,-7.09 93.18,-15.61 139.42,-25.92 46.37,-14.08 96.83,-29.87 114.69,-78.2 11.1,-76.66 -43.19,-171.03 -79.86,-238.97 -1.09,-2 -2.28,-3.92 -3.39,-5.89 -36.9,-53.32 -77.02,-108.31 -131.05,-149.28 l -35.68,-4.5 c -61.19,0.7 -100.69,60.55 -137.81,104.24 -20.69,34.22 -41.8,68.03 -62.59,101.87 -31.05,-38.14 -63.61,-74.99 -97.64,-110.43 0.58,-2.5 1.24,-4.95 1.81,-7.45 -9.14,-24.87 -24.44,-32.99 -42.52,-33.53 -36.22,-35.39 -73.84,-69.36 -112.95,-101.6 41.23,-24.86 81.77,-51.03 121.31,-78.83 37.57,-30.65 78.1,-64.53 76.08,-116.06 -17.66,-69.55 -92.88,-131.5 -151.38,-178.96 -57.81,-37.46 -119.36,-76.71 -189.6,-95.06 l -34.61,9.46 c -56.34,24.23 -69.93,94.49 -87.53,149.05 -5.99,39.56 -12.54,78.89 -18.78,118.13 -43.14,-23.49 -87.41,-45.19 -132.61,-65.16 -0.4,-2.36 -0.7,-4.69 -1.1,-7.04 -17.65,-19.19 -34.59,-21.13 -51.22,-15.09 -46.9,-18.97 -94.75,-36.08 -143.52,-51.1 28.41,-38.48 55.68,-77.91 81.43,-118.41 22.81,-42.752 47.43,-89.709 25.77,-136.439 -43.2,-57.871 -137.48,-86.371 -210,-107.852 -68.45,-12.629 -141.15,-25.718 -213.85,-15.679 l -28.34,21.992 c -42.78,43.84 -28.49,114.008 -23.74,171.058 9.5,38.64 18.42,77.3 27.58,115.75 -48.62,-5.07 -97.83,-8.2 -147.55,-9.31 -1.15,-1.87 -2.24,-3.76 -3.42,-5.63 -23.36,-10.79 -39.65,-6.33 -52.64,5.3 -51.37,0.43 -102.21,3 -152.47,7.64 11.45,-46.26 21.5,-92.929 29.74,-140.031 4.71,-48.347 9.5,-100.937 -28.38,-135.969 -60.36,-35.91 -154.86,-27.648 -229.24,-19.968 -71.26,15.308 -147.96,30.617 -214.82,69.84 l -17.79,31.117 c -22.7,56.851 17.31,116.181 43.52,167.171 23.3,31.67 46.09,63.55 69,95.18 -47.53,14.2 -94.27,30.23 -140.06,48.18 -1.42,-1.02 -2.8,-2.08 -4.24,-3.1 -25.03,-0.98 -38.38,8.76 -46.05,23.72 -47.3,20.24 -93.53,42.47 -138.63,66.52 -7.14,-47.03 -15.73,-93.91 -26.15,-140.49 -13.97,-46.48 -29.76,-96.91 -78.14,-114.72 -63.22,-9.26 -138.5,26.13 -201.01,59.37 -62.57,43.48 -132.07,88.27 -181.42,153.37 l -4.46,35.52 c 0.77,61.25 60.46,100.83 104.19,137.88 33.16,20.03 65.92,40.45 98.7,60.59 -38.54,31.34 -75.78,64.19 -111.58,98.56 -1.04,-0.24 -2.03,-0.51 -3.06,-0.76 -22.04,8.12 -30.93,21.07 -33.06,36.49 -36.37,36.93 -71.2,75.37 -104.3,115.33 -24.19,-39.99 -49.64,-79.3 -76.6,-117.67 -30.7,-37.54 -64.63,-78.08 -116.15,-76.02 -65.6,16.64 -124.59,84.63 -170.92,141.5 -40.83,63.28 -86.87,130.57 -107.18,208.45 l 9.38,34.62 c 24.16,56.28 94.46,69.93 148.98,87.42 37.88,5.76 75.54,12.03 113.11,18.06 -23.44,43.65 -45.1,88.41 -64.96,134.13 -0.72,0.12 -1.45,0.21 -2.19,0.34 -16.89,15.58 -20.42,30.6 -16.9,45.32 -19.35,48.18 -36.65,97.39 -51.83,147.52 -37.68,-27.71 -76.26,-54.31 -115.87,-79.49 -42.76,-22.89 -89.602,-47.34 -136.442,-25.83 -50.793,37.98 -78.981,115.33 -99.602,182.64 -13.711,77.05 -32.711,160.63 -21.211,244.29 l 21.985,28.35 c 43.836,42.73 114.039,28.48 171.05,23.71 37.24,-9.16 74.49,-17.78 111.55,-26.61 -4.73,48.94 -7.43,98.45 -8.14,148.45 -0.83,0.52 -1.67,1 -2.5,1.52 -9.93,21.42 -7.01,36.91 2.49,49.36 0.7,52.34 3.54,104.17 8.63,155.35 -45.7,-11.27 -91.81,-21.14 -138.346,-29.27 -48.258,-4.78 -100.898,-9.52 -135.937,28.33 -38.52,64.84 -26.211,168.89 -18.262,245.15 13.98,65.03 29.922,133.19 65.23,193.38 l 31.153,17.89 c 56.879,22.62 116.222,-17.33 167.172,-43.57 32.29,-23.78 64.8,-47.02 97.03,-70.39 14.27,47.14 30.35,93.5 48.31,138.92 -1.64,2.3 -3.34,4.52 -4.98,6.82 -1.14,27.22 10.51,40.6 27.79,47.9 20.17,46.43 42.18,91.87 66.04,136.16 -48.27,7.22 -96.39,15.96 -144.2,26.64 -46.45,14.04 -96.99,29.79 -114.77,78.17 -8.76,60.46 23.19,131.91 55.09,192.77 43.94,63.23 89.09,133.91 155.09,183.85 l 35.66,4.55 c 61.15,-0.8 100.69,-60.51 137.67,-104.19 20.64,-34.12 41.69,-67.84 62.43,-101.59 31.08,38.3 63.64,75.34 97.72,110.93 -0.52,2.18 -1.08,4.33 -1.58,6.53 8.92,24.32 23.72,32.65 41.26,33.53 36.3,35.62 74.04,69.78 113.25,102.24 -40.95,24.67 -81.18,50.62 -120.43,78.16 -37.5,30.78 -78.15,64.74 -76.06,116.21 16.7,66.05 85.7,125.47 142.8,171.97 63.78,41.07 131.4,87.69 210.07,108.14 l 34.63,-9.34 c 56.11,-24.19 69.84,-94.41 87.3,-149.04 5.94,-39 12.42,-77.78 18.61,-116.45 43.28,23.21 87.63,44.67 132.93,64.36 0.35,2.03 0.61,4.06 0.96,6.1 17.38,18.82 34.08,21.02 50.46,15.37 47.27,18.8 95.55,35.6 144.7,50.41 -28.53,38.63 -55.91,78.2 -81.76,118.9 -22.82,42.75 -47.3,89.58 -25.81,136.43 37.25,49.8 112.44,77.86 178.89,98.45 77.67,13.75 161.93,33.18 246.34,21.53 l 28.41,-22 c 42.7,-43.78 28.41,-113.99 23.74,-171.18 -9.44,-38.22 -18.28,-76.46 -27.36,-114.5 48.56,4.74 97.71,7.49 147.32,8.29 1.15,1.84 2.22,3.69 3.38,5.53 23.52,10.88 39.86,6.29 52.87,-5.49 51.38,-0.75 102.27,-3.57 152.51,-8.55 -11.55,46.64 -21.67,93.71 -29.95,141.21 -4.89,48.21 -9.57,100.91 28.21,135.9 66.56,39.62 174.5,25.5 251.29,17.65 16.45,-1.71 32.5,-4.29 48.41,-7.1 47.11,-11.8 94.19,-27.12 137.16,-52.35 l 17.87,-31.13 c 22.71,-56.81 -17.33,-116.25 -43.61,-167.21 -25.19,-34.24 -49.76,-68.72 -74.53,-102.85 46.48,-13.86 92.2,-29.5 137.03,-46.93 4.34,3.14 8.59,6.37 12.99,9.47 31.18,1.29 44.17,-14.21 50.65,-35.7 45.15,-19.59 89.34,-40.96 132.47,-64.07 7.36,50.27 16.38,100.36 27.47,150.13 14.01,46.49 29.86,96.93 78.23,114.77 55.68,8.14 120.76,-18.39 178.28,-47.58 67.39,-48.04 146.74,-95.27 201.34,-167.46 l 4.6,-35.62 c -0.75,-61.22 -60.48,-100.67 -104.21,-137.75 -34.87,-21.07 -69.28,-42.57 -103.74,-63.73 38.14,-30.85 75.06,-63.13 110.53,-96.94 3.06,0.72 6.07,1.52 9.13,2.21 25.76,-9.49 33.58,-25.55 33.58,-44.48 35.2,-35.87 68.96,-73.15 101.08,-111.86 25,41.55 51.34,82.39 79.33,122.22 30.62,37.55 64.59,78 116.03,76.13 60.27,-15.28 114.89,-73.8 159.28,-127.26 42.54,-66.84 93.28,-137.58 114.9,-220.4 l -9.44,-34.65 c -24.19,-56.28 -94.53,-69.9 -149.01,-87.45 -38.44,-5.85 -76.66,-12.22 -114.79,-18.32 23.62,-43.47 45.4,-88.09 65.46,-133.63 1.09,-0.19 2.19,-0.33 3.29,-0.52 17.36,-16 20.6,-31.41 16.6,-46.51 19.45,-47.8 36.95,-96.59 52.28,-146.34 37.65,27.69 76.21,54.26 115.82,79.38 42.7,23.07 89.6,47.37 136.41,25.89 57.27,-42.77 85.77,-135.59 107.25,-207.76 12.69,-68.96 26.15,-142.3 15.94,-215.7 m 114.05,75.84 c -16.61,43.66 -32.01,87.67 -45.89,132.28 -8.33,84.25 -8.74,167.41 -6.89,240.21 30.13,156.3 143.01,238.96 278.58,289.96 -15.74,39.73 -35.31,86.85 -48.91,119.69 -146.14,-70.91 -322.11,-83.56 -454.46,41.36 -28.14,29.82 -55.66,60.3 -82.29,91.65 -44.11,79.77 -79.09,162.77 -107.25,235.76 -31.83,155.96 40.82,275.53 146.51,374.57 -29.81,30.59 -65.94,66.73 -91.03,91.84 -107.96,-121.42 -265.64,-200.45 -435.76,-135.67 -32.53,14.57 -64.8,29.74 -96.67,45.76 -74.39,58.38 -141.16,124.19 -197.13,182.94 -89.15,131.85 -67.78,270.06 -7.97,402 -39.17,16.9 -86.44,36.46 -119.16,50.04 -53.3,-153.5 -168.77,-286.8 -350.68,-292.13 -55.47,1.61 -110.91,4.67 -166.34,10.61 -70.62,23.07 -137.58,50.69 -196.45,76.72 -132.84,87.64 -165.97,223.58 -161.25,368.35 -42.66,0.55 -93.75,0.64 -129.24,0.55 9.49,-162.15 -46.18,-329.55 -212.14,-404.03 -38.36,-14.62 -77.03,-28.35 -116.14,-40.94 -90.32,-10.1 -180.06,-10.59 -258.18,-8.71 -156.19,30.18 -238.85,143.13 -289.98,278.64 -39.6,-15.71 -86.8,-35.32 -119.43,-48.81 70.77,-146.35 83.36,-322.16 -41.47,-454.54 -33.5,-31.64 -67.81,-62.38 -103.27,-91.99 -77.82,-42.4 -158.37,-76.24 -229.46,-103.66 -155.85,-31.97 -275.42,40.78 -374.5,146.48 -30.58,-29.77 -66.73,-65.89 -91.722,-90.96 121.372,-107.99 200.362,-265.66 135.632,-435.78 -15.89,-35.48 -32.47,-70.64 -50.1,-105.34 -56.02,-69.72 -118.13,-132.47 -173.865,-185.48 -131.718,-89.15 -270.039,-67.7 -402.007,-7.95 -16.828,-39.24 -36.41,-86.42 -49.961,-119.12 153.504,-53.36 286.859,-168.79 292.109,-350.7 -1.359,-48.29 -3.851,-96.52 -8.387,-144.75 -24.351,-79.22 -55.132,-154.46 -84.093,-219.9 -87.621,-132.72 -223.61,-165.86 -368.379,-161.16 -0.539,-42.6 -0.578,-93.77 -0.539,-129.12 162.136,9.45 329.558,-46.22 404.043,-212.31 15.007,-39.33 29.066,-79.03 41.937,-119.22 9.961,-89.83 10.41,-179.01 8.512,-256.61 -30.184,-156.28 -143.082,-238.95 -278.684,-289.96 15.813,-39.67 35.258,-86.92 48.891,-119.6 146.269,70.84 322.16,83.41 454.527,-41.52 31.133,-32.83 61.376,-66.55 90.516,-101.37 42.15,-77.53 75.84,-157.69 103.19,-228.42 31.93,-155.89 -40.82,-275.45 -146.59,-374.49 29.8,-30.49 65.9,-66.66 90.98,-91.668 108,121.328 265.71,200.368 435.77,135.558 37.94,-16.96 75.46,-34.82 112.49,-53.86 69.17,-55.74 131.4,-117.42 184.08,-172.678 89.17,-131.731 67.79,-270.032 7.96,-401.961 39.2,-17.031 86.41,-36.442 119.13,-50.102 53.33,153.551 168.84,286.949 350.76,292.133 46.47,-1.32 92.93,-3.68 139.37,-7.883 83.21,-24.84 162.38,-57.097 230.72,-87.379 132.78,-87.699 165.9,-223.718 161.18,-368.441 42.7,-0.598 93.75,-0.598 129.23,-0.598 -9.49,162.281 46.16,329.649 212.19,404.071 43.99,16.777 88.39,32.347 133.44,46.347 83.98,8.192 166.82,8.551 239.47,6.832 156.29,-30.16 238.83,-143.101 289.92,-278.73 39.61,15.75 86.92,35.398 119.56,48.918 -70.79,146.332 -83.46,322.222 41.52,454.57 33.47,31.652 67.77,62.351 103.21,91.941 74.12,39.48 150.12,71.37 217.65,97.5 155.79,31.89 275.45,-40.79 374.49,-146.531 30.51,29.751 66.69,65.921 91.78,90.911 -121.43,108.04 -200.47,265.71 -135.72,435.84 21.18,47.26 43.71,93.95 68.28,139.77 52.31,62.9 108.74,119.83 159.87,168.49 131.81,89.16 269.97,67.76 402.04,8.03 16.8,39.15 36.37,86.25 49.96,119.18 -153.46,53.17 -286.83,168.66 -292.17,350.54 1.44,51.08 4.2,102.1 9.26,153.1 23.76,75.03 53.01,146.13 80.61,208.32 87.63,132.72 223.53,165.94 368.3,161.17 0.69,42.76 0.69,93.77 0.69,129.25 -162.28,-9.5 -329.65,46.18 -404.2,212.19" id="path30" style="fill:#e2e2e4;fill-opacity:1;fill-rule:nonzero;stroke:none" inkscape:connector-curvature="0"/></g></g></svg>