<?xml version="1.0" encoding="utf-8"?>
<!-- Generator: Adobe Illustrator 19.1.1, SVG Export Plug-In . SVG Version: 6.00 Build 0)  -->
<svg version="1.0" id="Layer_1" xmlns="http://www.w3.org/2000/svg" xmlns:xlink="http://www.w3.org/1999/xlink" x="0px" y="0px"
	 viewBox="0 0 560 96" style="enable-background:new 0 0 560 96;" xml:space="preserve">
<style type="text/css">
	.st0{fill:#FFFFFF;}
</style>
<polygon class="st0" points="186.155,83.15 186.155,12.85 188.426,12.85 188.426,83.15 186.155,83.15 "/>
<polygon class="st0" points="24.325,30.082 29.094,30.082 29.094,66.215 24.329,66.215 24.329,80.064 49.7,80.064 49.7,66.215 
	45.229,66.215 45.229,55.619 60.43,55.619 60.43,42.365 45.229,42.365 45.229,30.082 58.507,30.082 58.507,34.355 74.343,34.355 
	74.343,15.938 24.325,15.938 "/>
<polygon class="st0" points="107.477,15.938 82.102,15.938 82.102,30.082 86.772,30.082 86.772,66.215 82.202,66.215 82.202,80.064 
	107.477,80.064 107.477,66.215 102.905,66.215 102.905,30.082 107.477,30.082 "/>
<polygon class="st0" points="145.823,30.125 148.835,30.125 148.819,64.85 148.813,64.844 147.487,66.221 147.483,66.215 
	137.077,66.215 135.741,64.848 135.741,30.082 138.426,30.082 138.426,15.938 115.04,15.938 115.04,30.082 119.61,30.082 
	119.612,67.939 131.184,80.064 153.36,80.064 164.948,67.939 164.954,30.082 169.522,30.082 169.522,15.938 145.823,15.981 "/>
<g>
	<path class="st0" d="M52.663,83.064h-31.34V63.174l4.746-0.016V33.117l-4.746,0.002V12.936h56.1v24.433H55.286v-4.293h-7.02v6.238
		l15.225,0.029V58.73l-15.225-0.031v4.484h4.397V83.064z M22.893,81.494h28.199v-16.74h-4.396v-7.627l15.225,0.029V40.912
		l-15.225-0.031v-9.375h10.16v4.293h18.996V14.506H22.893v17.043l4.746-0.004v33.178l-4.746,0.016V81.494z"/>
</g>
<g>
	<path class="st0" d="M110.442,83.061h-31.34V63.186h4.676V33.082h-4.676V12.941h31.373v20.141h-4.564v30.104h4.531V83.061z
		 M80.673,81.49h28.199V64.756h-4.531V31.512h4.564v-17H80.673v17h4.676v33.244h-4.676V81.49z"/>
</g>
<g>
	<path class="st0" d="M154.997,83.068h-25.381l-13.035-13.689V33.073h-4.519V12.933h29.58v20.144h-2.85v30.115h7.018l0.004-30.119
		l-3.193,0.006V12.936l29.936-0.003v20.141h-4.605v36.304L154.997,83.068z M130.29,81.498h24.031l12.059-12.746V31.503h4.605v-17
		l-26.795,0.003v17l3.193-0.006l-0.004,33.262h-10.158V31.506h2.85V14.503h-26.439v17h4.52V68.75L130.29,81.498z"/>
</g>
<g>
	<path class="st0" d="M206.969,36.503c0.242,0.467,0.564,0.845,0.966,1.134c0.401,0.29,0.873,0.504,1.414,0.644
		s1.101,0.21,1.68,0.21c0.392,0,0.812-0.032,1.26-0.098c0.448-0.065,0.868-0.191,1.26-0.378c0.392-0.187,0.718-0.443,0.98-0.77
		c0.261-0.326,0.392-0.742,0.392-1.246c0-0.541-0.173-0.98-0.518-1.316c-0.346-0.336-0.798-0.616-1.358-0.84
		s-1.195-0.42-1.904-0.588c-0.709-0.168-1.428-0.354-2.156-0.56c-0.747-0.187-1.475-0.416-2.184-0.686
		c-0.709-0.271-1.344-0.621-1.904-1.05c-0.56-0.429-1.013-0.966-1.358-1.61s-0.518-1.423-0.518-2.338
		c0-1.026,0.219-1.918,0.658-2.674c0.438-0.756,1.012-1.386,1.722-1.89c0.709-0.504,1.512-0.877,2.408-1.12
		c0.896-0.242,1.792-0.364,2.688-0.364c1.045,0,2.048,0.117,3.01,0.35c0.961,0.234,1.815,0.612,2.562,1.134
		c0.746,0.522,1.339,1.19,1.778,2.002c0.438,0.812,0.658,1.797,0.658,2.954h-4.256c-0.038-0.597-0.164-1.092-0.378-1.484
		c-0.215-0.392-0.5-0.7-0.854-0.924s-0.761-0.382-1.218-0.476c-0.458-0.093-0.957-0.14-1.498-0.14c-0.355,0-0.709,0.038-1.064,0.112
		c-0.355,0.075-0.677,0.206-0.966,0.392c-0.29,0.187-0.528,0.42-0.714,0.7c-0.187,0.28-0.28,0.635-0.28,1.064
		c0,0.392,0.074,0.71,0.224,0.952c0.149,0.243,0.443,0.467,0.882,0.672c0.438,0.206,1.045,0.411,1.82,0.616
		c0.774,0.206,1.787,0.467,3.038,0.784c0.373,0.075,0.891,0.21,1.554,0.406c0.662,0.196,1.32,0.509,1.974,0.938
		c0.653,0.43,1.218,1.003,1.694,1.722s0.714,1.638,0.714,2.758c0,0.915-0.178,1.764-0.532,2.548
		c-0.354,0.784-0.882,1.461-1.582,2.03c-0.7,0.569-1.568,1.013-2.604,1.33c-1.036,0.317-2.236,0.476-3.598,0.476
		c-1.102,0-2.17-0.136-3.206-0.406s-1.951-0.695-2.744-1.274s-1.423-1.316-1.89-2.212c-0.467-0.896-0.691-1.96-0.672-3.192h4.256
		C206.605,35.468,206.726,36.037,206.969,36.503z"/>
	<path class="st0" d="M228.105,29.56c-0.635,0-1.167,0.145-1.596,0.434c-0.43,0.29-0.78,0.663-1.05,1.12
		c-0.271,0.458-0.462,0.961-0.574,1.512c-0.112,0.551-0.168,1.097-0.168,1.638c0,0.523,0.056,1.055,0.168,1.596
		s0.294,1.031,0.546,1.47c0.252,0.439,0.592,0.798,1.022,1.078c0.429,0.28,0.952,0.42,1.568,0.42c0.952,0,1.684-0.266,2.198-0.798
		c0.513-0.532,0.835-1.246,0.966-2.142h3.836c-0.262,1.923-1.008,3.388-2.24,4.396s-2.81,1.512-4.732,1.512
		c-1.083,0-2.077-0.182-2.982-0.546c-0.906-0.364-1.676-0.872-2.31-1.526c-0.635-0.653-1.13-1.432-1.484-2.338
		c-0.355-0.905-0.532-1.899-0.532-2.982c0-1.12,0.163-2.161,0.49-3.122c0.326-0.961,0.807-1.792,1.442-2.492
		c0.634-0.7,1.409-1.246,2.324-1.638c0.915-0.392,1.96-0.588,3.136-0.588c0.858,0,1.684,0.112,2.478,0.336
		c0.793,0.224,1.502,0.565,2.128,1.022c0.625,0.458,1.134,1.026,1.526,1.708c0.392,0.681,0.616,1.489,0.672,2.422h-3.892
		C230.783,30.391,229.803,29.56,228.105,29.56z"/>
	<path class="st0" d="M241.164,21.439v7.532h0.084c0.504-0.84,1.148-1.451,1.932-1.834c0.784-0.382,1.549-0.574,2.296-0.574
		c1.064,0,1.937,0.145,2.618,0.434c0.681,0.29,1.218,0.691,1.61,1.204c0.392,0.514,0.667,1.139,0.826,1.876
		c0.158,0.738,0.238,1.554,0.238,2.45v8.904h-3.976v-8.176c0-1.195-0.187-2.086-0.56-2.674c-0.374-0.588-1.036-0.882-1.988-0.882
		c-1.083,0-1.867,0.322-2.352,0.966s-0.728,1.704-0.728,3.178v7.588h-3.976V21.439H241.164z"/>
	<path class="st0" d="M254.273,31.058c0.354-0.942,0.857-1.745,1.512-2.408c0.652-0.662,1.437-1.176,2.352-1.54
		c0.914-0.364,1.941-0.546,3.08-0.546s2.17,0.182,3.094,0.546c0.924,0.364,1.713,0.877,2.367,1.54
		c0.652,0.663,1.156,1.466,1.512,2.408c0.354,0.943,0.531,1.993,0.531,3.15c0,1.158-0.178,2.203-0.531,3.136
		c-0.355,0.934-0.859,1.731-1.512,2.394c-0.654,0.663-1.443,1.171-2.367,1.526s-1.955,0.532-3.094,0.532s-2.166-0.177-3.08-0.532
		s-1.699-0.863-2.352-1.526c-0.654-0.663-1.158-1.46-1.512-2.394c-0.355-0.933-0.532-1.979-0.532-3.136
		C253.74,33.05,253.918,32,254.273,31.058z M257.884,35.902c0.113,0.551,0.303,1.045,0.574,1.484s0.631,0.789,1.078,1.05
		c0.447,0.262,1.008,0.392,1.68,0.392s1.236-0.13,1.695-0.392c0.457-0.261,0.82-0.611,1.092-1.05
		c0.27-0.438,0.461-0.933,0.574-1.484c0.111-0.551,0.168-1.115,0.168-1.694c0-0.578-0.057-1.148-0.168-1.708
		c-0.113-0.56-0.305-1.054-0.574-1.484c-0.271-0.429-0.635-0.779-1.092-1.05c-0.459-0.271-1.023-0.406-1.695-0.406
		s-1.232,0.136-1.68,0.406s-0.807,0.621-1.078,1.05c-0.271,0.43-0.461,0.924-0.574,1.484c-0.111,0.56-0.168,1.13-0.168,1.708
		C257.716,34.787,257.773,35.351,257.884,35.902z"/>
	<path class="st0" d="M271.273,31.058c0.354-0.942,0.858-1.745,1.513-2.408c0.652-0.662,1.437-1.176,2.352-1.54
		c0.914-0.364,1.941-0.546,3.08-0.546s2.17,0.182,3.094,0.546c0.924,0.364,1.713,0.877,2.366,1.54
		c0.653,0.663,1.157,1.466,1.512,2.408c0.354,0.943,0.532,1.993,0.532,3.15c0,1.158-0.178,2.203-0.532,3.136
		c-0.354,0.934-0.858,1.731-1.512,2.394s-1.442,1.171-2.366,1.526s-1.955,0.532-3.094,0.532s-2.166-0.177-3.08-0.532
		c-0.915-0.354-1.699-0.863-2.352-1.526c-0.654-0.663-1.158-1.46-1.513-2.394c-0.354-0.933-0.531-1.979-0.531-3.136
		C270.741,33.05,270.918,32,271.273,31.058z M274.885,35.902c0.112,0.551,0.303,1.045,0.574,1.484
		c0.271,0.438,0.63,0.789,1.078,1.05c0.447,0.262,1.008,0.392,1.68,0.392s1.236-0.13,1.694-0.392
		c0.457-0.261,0.821-0.611,1.092-1.05s0.462-0.933,0.574-1.484c0.111-0.551,0.168-1.115,0.168-1.694
		c0-0.578-0.057-1.148-0.168-1.708c-0.112-0.56-0.304-1.054-0.574-1.484c-0.271-0.429-0.635-0.779-1.092-1.05
		c-0.458-0.271-1.022-0.406-1.694-0.406s-1.232,0.136-1.68,0.406c-0.448,0.271-0.808,0.621-1.078,1.05
		c-0.271,0.43-0.462,0.924-0.574,1.484c-0.112,0.56-0.168,1.13-0.168,1.708C274.717,34.787,274.773,35.351,274.885,35.902z"/>
	<path class="st0" d="M292.277,21.439v19.992h-3.976V21.439H292.277z"/>
	<path class="st0" d="M303.273,31.058c0.354-0.942,0.858-1.745,1.513-2.408c0.652-0.662,1.437-1.176,2.352-1.54
		c0.914-0.364,1.941-0.546,3.08-0.546s2.17,0.182,3.094,0.546c0.924,0.364,1.713,0.877,2.366,1.54
		c0.653,0.663,1.157,1.466,1.512,2.408c0.354,0.943,0.532,1.993,0.532,3.15c0,1.158-0.178,2.203-0.532,3.136
		c-0.354,0.934-0.858,1.731-1.512,2.394s-1.442,1.171-2.366,1.526s-1.955,0.532-3.094,0.532s-2.166-0.177-3.08-0.532
		c-0.915-0.354-1.699-0.863-2.352-1.526c-0.654-0.663-1.158-1.46-1.513-2.394c-0.354-0.933-0.531-1.979-0.531-3.136
		C302.741,33.05,302.918,32,303.273,31.058z M306.885,35.902c0.112,0.551,0.303,1.045,0.574,1.484
		c0.271,0.438,0.63,0.789,1.078,1.05c0.447,0.262,1.008,0.392,1.68,0.392s1.236-0.13,1.694-0.392
		c0.457-0.261,0.821-0.611,1.092-1.05s0.462-0.933,0.574-1.484c0.111-0.551,0.168-1.115,0.168-1.694
		c0-0.578-0.057-1.148-0.168-1.708c-0.112-0.56-0.304-1.054-0.574-1.484c-0.271-0.429-0.635-0.779-1.092-1.05
		c-0.458-0.271-1.022-0.406-1.694-0.406s-1.232,0.136-1.68,0.406c-0.448,0.271-0.808,0.621-1.078,1.05
		c-0.271,0.43-0.462,0.924-0.574,1.484c-0.112,0.56-0.168,1.13-0.168,1.708C306.717,34.787,306.773,35.351,306.885,35.902z"/>
	<path class="st0" d="M318.677,29.616v-2.66h2.38v-1.12c0-1.288,0.401-2.342,1.204-3.164s2.016-1.232,3.64-1.232
		c0.354,0,0.71,0.014,1.064,0.042c0.354,0.028,0.7,0.052,1.036,0.07v2.968c-0.467-0.056-0.952-0.084-1.456-0.084
		c-0.542,0-0.929,0.126-1.162,0.378s-0.35,0.677-0.35,1.274v0.868h2.743v2.66h-2.743v11.816h-3.977V29.616H318.677z"/>
	<path class="st0" d="M350.433,26.773c-0.262-0.42-0.588-0.788-0.979-1.106c-0.393-0.317-0.836-0.564-1.33-0.742
		c-0.495-0.177-1.013-0.266-1.555-0.266c-0.989,0-1.829,0.191-2.52,0.574c-0.69,0.383-1.251,0.896-1.68,1.54
		c-0.43,0.644-0.742,1.377-0.938,2.198c-0.196,0.822-0.294,1.671-0.294,2.548c0,0.84,0.098,1.657,0.294,2.45
		s0.509,1.507,0.938,2.142c0.429,0.635,0.989,1.144,1.68,1.526c0.69,0.383,1.53,0.574,2.52,0.574c1.345,0,2.395-0.41,3.15-1.232
		c0.756-0.821,1.218-1.904,1.386-3.248h4.256c-0.111,1.251-0.401,2.38-0.867,3.388c-0.467,1.008-1.083,1.867-1.849,2.576
		s-1.661,1.25-2.688,1.624c-1.027,0.373-2.156,0.56-3.389,0.56c-1.53,0-2.907-0.266-4.13-0.798
		c-1.223-0.532-2.254-1.264-3.094-2.198c-0.84-0.933-1.484-2.03-1.932-3.29c-0.448-1.26-0.672-2.618-0.672-4.074
		c0-1.493,0.224-2.879,0.672-4.158c0.447-1.278,1.092-2.394,1.932-3.346s1.871-1.698,3.094-2.24s2.6-0.812,4.13-0.812
		c1.102,0,2.143,0.159,3.122,0.476c0.98,0.318,1.857,0.78,2.633,1.386c0.773,0.607,1.413,1.358,1.918,2.254
		c0.504,0.896,0.82,1.923,0.951,3.08h-4.256C350.863,27.656,350.695,27.194,350.433,26.773z"/>
	<path class="st0" d="M358.273,31.058c0.354-0.942,0.858-1.745,1.513-2.408c0.652-0.662,1.437-1.176,2.352-1.54
		c0.914-0.364,1.941-0.546,3.08-0.546s2.17,0.182,3.094,0.546c0.924,0.364,1.713,0.877,2.366,1.54
		c0.653,0.663,1.157,1.466,1.512,2.408c0.354,0.943,0.532,1.993,0.532,3.15c0,1.158-0.178,2.203-0.532,3.136
		c-0.354,0.934-0.858,1.731-1.512,2.394s-1.442,1.171-2.366,1.526s-1.955,0.532-3.094,0.532s-2.166-0.177-3.08-0.532
		c-0.915-0.354-1.699-0.863-2.352-1.526c-0.654-0.663-1.158-1.46-1.513-2.394c-0.354-0.933-0.531-1.979-0.531-3.136
		C357.741,33.05,357.918,32,358.273,31.058z M361.885,35.902c0.112,0.551,0.303,1.045,0.574,1.484
		c0.271,0.438,0.63,0.789,1.078,1.05c0.447,0.262,1.008,0.392,1.68,0.392s1.236-0.13,1.694-0.392
		c0.457-0.261,0.821-0.611,1.092-1.05s0.462-0.933,0.574-1.484c0.111-0.551,0.168-1.115,0.168-1.694
		c0-0.578-0.057-1.148-0.168-1.708c-0.112-0.56-0.304-1.054-0.574-1.484c-0.271-0.429-0.635-0.779-1.092-1.05
		c-0.458-0.271-1.022-0.406-1.694-0.406s-1.232,0.136-1.68,0.406c-0.448,0.271-0.808,0.621-1.078,1.05
		c-0.271,0.43-0.462,0.924-0.574,1.484c-0.112,0.56-0.168,1.13-0.168,1.708C361.717,34.787,361.773,35.351,361.885,35.902z"/>
	<path class="st0" d="M379.053,26.956v1.96h0.056c0.522-0.746,1.152-1.325,1.891-1.736c0.737-0.411,1.582-0.616,2.534-0.616
		c0.914,0,1.75,0.178,2.506,0.532c0.756,0.355,1.33,0.98,1.722,1.876c0.43-0.634,1.013-1.194,1.75-1.68
		c0.737-0.485,1.61-0.728,2.618-0.728c0.765,0,1.475,0.094,2.128,0.28s1.213,0.485,1.68,0.896s0.831,0.948,1.092,1.61
		c0.262,0.663,0.393,1.461,0.393,2.394v9.688h-3.977v-8.204c0-0.485-0.019-0.942-0.056-1.372c-0.037-0.429-0.14-0.802-0.308-1.12
		s-0.416-0.569-0.742-0.756c-0.327-0.186-0.771-0.28-1.33-0.28s-1.013,0.107-1.358,0.322c-0.346,0.215-0.615,0.495-0.812,0.84
		s-0.327,0.737-0.393,1.176c-0.065,0.439-0.098,0.882-0.098,1.33v8.064h-3.976v-8.12c0-0.429-0.01-0.854-0.028-1.274
		c-0.019-0.42-0.098-0.807-0.238-1.162c-0.14-0.354-0.373-0.639-0.699-0.854c-0.327-0.214-0.808-0.322-1.442-0.322
		c-0.187,0-0.435,0.042-0.742,0.126s-0.606,0.243-0.896,0.476c-0.29,0.233-0.537,0.569-0.742,1.008
		c-0.206,0.439-0.309,1.013-0.309,1.722v8.4h-3.976V26.956H379.053z"/>
	<path class="st0" d="M403.969,26.956v1.848h0.056c0.485-0.784,1.102-1.353,1.849-1.708c0.746-0.354,1.567-0.532,2.464-0.532
		c1.139,0,2.118,0.215,2.939,0.644c0.821,0.43,1.503,0.999,2.044,1.708c0.542,0.71,0.942,1.536,1.204,2.478
		c0.262,0.943,0.393,1.928,0.393,2.954c0,0.971-0.131,1.904-0.393,2.8s-0.657,1.69-1.189,2.38s-1.195,1.241-1.988,1.652
		c-0.794,0.41-1.722,0.616-2.786,0.616c-0.896,0-1.722-0.182-2.478-0.546c-0.756-0.364-1.377-0.9-1.862-1.61h-0.056v6.86h-3.977
		V26.956H403.969z M409.135,38.436c0.438-0.261,0.793-0.602,1.064-1.022c0.27-0.42,0.462-0.91,0.573-1.47
		c0.112-0.56,0.168-1.129,0.168-1.708s-0.061-1.148-0.182-1.708c-0.122-0.56-0.322-1.06-0.602-1.498
		c-0.28-0.438-0.64-0.793-1.078-1.064c-0.439-0.271-0.976-0.406-1.61-0.406c-0.653,0-1.199,0.136-1.638,0.406
		c-0.439,0.271-0.794,0.621-1.064,1.05c-0.271,0.43-0.462,0.924-0.574,1.484c-0.111,0.56-0.168,1.139-0.168,1.736
		c0,0.579,0.061,1.148,0.183,1.708c0.121,0.56,0.317,1.05,0.588,1.47s0.63,0.761,1.078,1.022c0.447,0.262,0.989,0.392,1.624,0.392
		C408.151,38.828,408.697,38.697,409.135,38.436z"/>
	<path class="st0" d="M426.989,41.432v-2.016h-0.084c-0.504,0.84-1.157,1.447-1.96,1.82c-0.803,0.373-1.624,0.56-2.464,0.56
		c-1.063,0-1.937-0.14-2.618-0.42c-0.682-0.28-1.218-0.676-1.609-1.19c-0.393-0.513-0.668-1.138-0.826-1.876
		c-0.159-0.737-0.238-1.554-0.238-2.45v-8.904h3.977v8.176c0,1.195,0.187,2.086,0.56,2.674s1.036,0.882,1.988,0.882
		c1.082,0,1.866-0.322,2.352-0.966s0.729-1.703,0.729-3.178v-7.588h3.976v14.476H426.989z"/>
	<path class="st0" d="M442.141,26.956v2.66h-2.912v7.168c0,0.672,0.112,1.12,0.336,1.344c0.225,0.224,0.672,0.336,1.345,0.336
		c0.224,0,0.438-0.009,0.644-0.028c0.205-0.018,0.401-0.046,0.588-0.084v3.08c-0.336,0.056-0.71,0.093-1.12,0.112
		s-0.812,0.028-1.204,0.028c-0.615,0-1.199-0.042-1.75-0.126s-1.036-0.248-1.456-0.49c-0.42-0.242-0.751-0.588-0.993-1.036
		c-0.243-0.448-0.364-1.036-0.364-1.764v-8.54h-2.408v-2.66h2.408v-4.34h3.976v4.34H442.141z"/>
	<path class="st0" d="M444.301,24.716v-3.276h3.976v3.276H444.301z M448.277,26.956v14.476h-3.976V26.956H448.277z"/>
	<path class="st0" d="M454.969,26.956v2.016h0.084c0.504-0.84,1.157-1.451,1.96-1.834c0.803-0.382,1.624-0.574,2.464-0.574
		c1.064,0,1.937,0.145,2.618,0.434c0.682,0.29,1.218,0.691,1.61,1.204c0.392,0.514,0.667,1.139,0.825,1.876
		c0.159,0.738,0.238,1.554,0.238,2.45v8.904h-3.976v-8.176c0-1.195-0.188-2.086-0.561-2.674s-1.036-0.882-1.987-0.882
		c-1.083,0-1.867,0.322-2.353,0.966s-0.728,1.704-0.728,3.178v7.588h-3.977V26.956H454.969z"/>
	<path class="st0" d="M481.867,42.496c-0.159,0.747-0.5,1.442-1.022,2.086c-0.522,0.644-1.278,1.189-2.268,1.638
		c-0.99,0.448-2.315,0.672-3.977,0.672c-0.709,0-1.433-0.089-2.17-0.266c-0.737-0.178-1.409-0.453-2.016-0.826
		c-0.607-0.374-1.111-0.854-1.513-1.442s-0.63-1.293-0.686-2.114h3.948c0.187,0.747,0.55,1.264,1.092,1.554
		c0.541,0.289,1.166,0.434,1.876,0.434c1.12,0,1.937-0.336,2.45-1.008c0.513-0.672,0.76-1.521,0.742-2.548v-1.904h-0.057
		c-0.43,0.766-1.041,1.33-1.834,1.694c-0.793,0.364-1.629,0.546-2.506,0.546c-1.083,0-2.016-0.191-2.8-0.574
		c-0.784-0.382-1.428-0.905-1.933-1.568c-0.504-0.663-0.872-1.437-1.105-2.324c-0.233-0.886-0.35-1.824-0.35-2.814
		c0-0.933,0.135-1.834,0.405-2.702c0.271-0.868,0.667-1.633,1.19-2.296c0.522-0.662,1.171-1.19,1.946-1.582
		c0.774-0.392,1.666-0.588,2.674-0.588c0.952,0,1.787,0.178,2.506,0.532c0.718,0.355,1.32,0.952,1.806,1.792h0.057v-1.932h3.779
		v13.552C482.105,41.086,482.026,41.749,481.867,42.496z M476.421,37.68c0.429-0.224,0.784-0.522,1.063-0.896
		c0.28-0.373,0.49-0.798,0.631-1.274c0.14-0.476,0.21-0.975,0.21-1.498c0-0.597-0.057-1.162-0.168-1.694
		c-0.112-0.532-0.299-1.003-0.561-1.414s-0.606-0.737-1.036-0.98s-0.971-0.364-1.624-0.364c-0.56,0-1.041,0.112-1.441,0.336
		c-0.402,0.224-0.738,0.528-1.009,0.91c-0.271,0.383-0.467,0.822-0.588,1.316c-0.121,0.495-0.182,1.013-0.182,1.554
		c0,0.522,0.051,1.041,0.154,1.554c0.102,0.514,0.279,0.976,0.531,1.386s0.584,0.747,0.994,1.008
		c0.411,0.262,0.924,0.392,1.54,0.392C475.497,38.016,475.991,37.904,476.421,37.68z"/>
	<path class="st0" d="M502.107,41.208c-0.905,0.392-1.928,0.588-3.065,0.588c-0.896,0-1.741-0.13-2.534-0.392
		c-0.794-0.261-1.479-0.648-2.058-1.162c-0.579-0.513-1.036-1.139-1.372-1.876s-0.504-1.582-0.504-2.534
		c0-0.709,0.121-1.358,0.363-1.946s0.574-1.12,0.994-1.596c0.42-0.476,0.9-0.9,1.442-1.274c0.541-0.373,1.101-0.7,1.68-0.98
		c-0.542-0.653-0.994-1.306-1.358-1.96c-0.363-0.653-0.546-1.418-0.546-2.296c0-0.69,0.145-1.316,0.435-1.876
		c0.289-0.56,0.676-1.041,1.162-1.442c0.484-0.401,1.04-0.709,1.666-0.924c0.625-0.214,1.273-0.322,1.945-0.322
		c0.766,0,1.479,0.103,2.143,0.308c0.662,0.206,1.241,0.509,1.735,0.91c0.495,0.402,0.887,0.901,1.177,1.498
		c0.289,0.598,0.434,1.288,0.434,2.072c0,1.176-0.341,2.166-1.021,2.968c-0.682,0.803-1.526,1.475-2.534,2.016l2.576,3.164
		c0.205-0.374,0.363-0.761,0.476-1.162s0.196-0.807,0.252-1.218h3.444c-0.094,0.896-0.299,1.764-0.616,2.604
		c-0.317,0.84-0.756,1.615-1.316,2.324l4.061,4.732h-4.872l-1.624-1.988C503.866,40.228,503.012,40.815,502.107,41.208z
		 M498.117,33.144c-0.337,0.206-0.635,0.448-0.896,0.728c-0.262,0.28-0.472,0.588-0.63,0.924c-0.159,0.336-0.238,0.71-0.238,1.12
		c0,0.355,0.079,0.696,0.238,1.022c0.158,0.327,0.368,0.607,0.63,0.84s0.564,0.42,0.91,0.56c0.345,0.14,0.704,0.21,1.078,0.21
		c0.709,0,1.33-0.164,1.861-0.49c0.532-0.326,1.031-0.751,1.498-1.274l-3.416-4.172C498.798,32.761,498.453,32.938,498.117,33.144z
		 M501.827,24.436c-0.364-0.373-0.789-0.56-1.274-0.56s-0.905,0.164-1.26,0.49c-0.355,0.327-0.532,0.751-0.532,1.274
		c0,0.635,0.168,1.176,0.504,1.624c0.336,0.448,0.69,0.906,1.064,1.372c0.56-0.354,1.04-0.737,1.441-1.148s0.603-0.98,0.603-1.708
		C502.373,25.257,502.191,24.809,501.827,24.436z"/>
	<path class="st0" d="M208.005,49.439v19.992h-4.396V49.439H208.005z"/>
	<path class="st0" d="M214.969,54.956v2.016h0.084c0.504-0.84,1.157-1.451,1.96-1.834c0.802-0.383,1.624-0.574,2.464-0.574
		c1.064,0,1.937,0.145,2.618,0.435c0.681,0.289,1.218,0.69,1.61,1.203c0.392,0.514,0.667,1.14,0.826,1.877
		c0.158,0.737,0.238,1.554,0.238,2.449v8.904h-3.976v-8.176c0-1.194-0.187-2.086-0.56-2.674c-0.374-0.589-1.036-0.883-1.988-0.883
		c-1.083,0-1.867,0.322-2.352,0.967c-0.485,0.644-0.728,1.703-0.728,3.178v7.588h-3.976V54.956H214.969z"/>
	<path class="st0" d="M226.677,57.615v-2.659h2.38v-1.12c0-1.288,0.401-2.343,1.204-3.164c0.802-0.821,2.016-1.232,3.64-1.232
		c0.354,0,0.709,0.015,1.064,0.042c0.354,0.028,0.7,0.052,1.036,0.07v2.968c-0.467-0.056-0.952-0.084-1.456-0.084
		c-0.542,0-0.929,0.126-1.162,0.378c-0.234,0.252-0.35,0.677-0.35,1.274v0.868h2.744v2.659h-2.744v11.816h-3.976V57.615H226.677z"/>
	<path class="st0" d="M237.273,59.058c0.354-0.942,0.858-1.745,1.512-2.408c0.653-0.662,1.438-1.176,2.352-1.54
		c0.915-0.363,1.941-0.546,3.08-0.546c1.138,0,2.17,0.183,3.094,0.546c0.924,0.364,1.712,0.878,2.366,1.54
		c0.653,0.663,1.157,1.466,1.512,2.408c0.354,0.942,0.532,1.993,0.532,3.15s-0.178,2.202-0.532,3.136
		c-0.355,0.934-0.859,1.731-1.512,2.394c-0.654,0.663-1.442,1.172-2.366,1.526c-0.924,0.354-1.956,0.532-3.094,0.532
		c-1.139,0-2.166-0.178-3.08-0.532s-1.699-0.863-2.352-1.526c-0.653-0.662-1.158-1.46-1.512-2.394
		c-0.355-0.934-0.532-1.979-0.532-3.136S236.918,60,237.273,59.058z M240.885,63.901c0.112,0.551,0.303,1.046,0.574,1.484
		c0.27,0.438,0.63,0.789,1.078,1.05c0.448,0.262,1.008,0.393,1.68,0.393s1.236-0.131,1.694-0.393
		c0.458-0.261,0.821-0.611,1.092-1.05c0.27-0.438,0.462-0.934,0.574-1.484c0.112-0.55,0.168-1.115,0.168-1.693
		c0-0.579-0.056-1.148-0.168-1.708c-0.112-0.561-0.304-1.055-0.574-1.484c-0.271-0.429-0.635-0.779-1.092-1.05
		s-1.022-0.406-1.694-0.406s-1.232,0.136-1.68,0.406c-0.448,0.271-0.808,0.621-1.078,1.05c-0.271,0.43-0.462,0.924-0.574,1.484
		c-0.112,0.56-0.168,1.129-0.168,1.708C240.717,62.786,240.773,63.352,240.885,63.901z"/>
	<path class="st0" d="M257.968,54.956v2.688h0.057c0.186-0.448,0.438-0.863,0.756-1.246c0.316-0.382,0.682-0.709,1.092-0.979
		s0.85-0.48,1.316-0.63s0.951-0.225,1.455-0.225c0.262,0,0.551,0.047,0.869,0.141v3.695c-0.188-0.037-0.412-0.069-0.672-0.098
		c-0.262-0.028-0.514-0.042-0.756-0.042c-0.729,0-1.344,0.121-1.85,0.364c-0.504,0.242-0.908,0.573-1.217,0.993
		c-0.309,0.421-0.527,0.91-0.658,1.471c-0.131,0.56-0.195,1.167-0.195,1.819v6.524h-3.977V54.956H257.968z"/>
	<path class="st0" d="M269.053,54.956v1.96h0.056c0.522-0.747,1.152-1.325,1.891-1.736c0.737-0.41,1.582-0.616,2.534-0.616
		c0.914,0,1.75,0.178,2.506,0.532s1.33,0.979,1.722,1.876c0.43-0.635,1.013-1.194,1.75-1.68s1.61-0.729,2.618-0.729
		c0.765,0,1.475,0.094,2.128,0.28s1.213,0.485,1.68,0.896c0.467,0.411,0.831,0.948,1.092,1.61c0.262,0.663,0.393,1.461,0.393,2.394
		v9.688h-3.977v-8.204c0-0.485-0.019-0.942-0.056-1.372c-0.037-0.429-0.14-0.802-0.308-1.12c-0.168-0.317-0.416-0.569-0.742-0.756
		c-0.327-0.187-0.771-0.28-1.33-0.28s-1.013,0.108-1.358,0.322c-0.346,0.215-0.615,0.495-0.812,0.84
		c-0.196,0.346-0.327,0.738-0.393,1.177s-0.098,0.882-0.098,1.329v8.064h-3.976v-8.12c0-0.429-0.01-0.854-0.028-1.273
		c-0.019-0.421-0.098-0.808-0.238-1.162c-0.14-0.354-0.373-0.64-0.699-0.854c-0.327-0.214-0.808-0.322-1.442-0.322
		c-0.187,0-0.435,0.042-0.742,0.126s-0.606,0.243-0.896,0.477c-0.29,0.233-0.537,0.569-0.742,1.008
		c-0.206,0.438-0.309,1.013-0.309,1.722v8.4h-3.976V54.956H269.053z"/>
	<path class="st0" d="M290.721,57.084c0.41-0.616,0.934-1.11,1.568-1.484c0.634-0.373,1.348-0.639,2.142-0.798
		c0.793-0.158,1.591-0.238,2.395-0.238c0.728,0,1.465,0.052,2.212,0.154c0.746,0.103,1.428,0.304,2.044,0.602
		c0.615,0.299,1.12,0.714,1.512,1.246s0.588,1.237,0.588,2.114v7.532c0,0.653,0.037,1.278,0.112,1.876
		c0.074,0.598,0.205,1.045,0.392,1.344h-4.032c-0.074-0.224-0.135-0.452-0.182-0.686s-0.079-0.472-0.098-0.715
		c-0.635,0.654-1.382,1.111-2.24,1.372c-0.858,0.262-1.736,0.393-2.632,0.393c-0.691,0-1.335-0.084-1.933-0.252
		s-1.119-0.43-1.567-0.784s-0.798-0.803-1.05-1.344c-0.252-0.542-0.378-1.186-0.378-1.933c0-0.821,0.144-1.498,0.434-2.029
		c0.289-0.532,0.662-0.957,1.12-1.274c0.457-0.317,0.979-0.556,1.567-0.714c0.589-0.158,1.181-0.284,1.778-0.378
		s1.186-0.168,1.764-0.225c0.579-0.056,1.093-0.14,1.54-0.252c0.448-0.111,0.803-0.274,1.064-0.489
		c0.261-0.215,0.382-0.527,0.364-0.938c0-0.429-0.07-0.77-0.21-1.021c-0.141-0.253-0.327-0.448-0.561-0.589
		c-0.233-0.14-0.504-0.232-0.812-0.279c-0.309-0.047-0.64-0.07-0.994-0.07c-0.784,0-1.4,0.168-1.849,0.504
		c-0.447,0.336-0.709,0.896-0.783,1.68h-3.977C290.077,58.475,290.31,57.699,290.721,57.084z M298.575,62.697
		c-0.252,0.084-0.523,0.154-0.813,0.21c-0.29,0.057-0.593,0.104-0.91,0.141s-0.635,0.084-0.952,0.14
		c-0.299,0.056-0.593,0.131-0.882,0.225c-0.289,0.093-0.541,0.219-0.756,0.378c-0.215,0.158-0.388,0.359-0.518,0.602
		c-0.131,0.243-0.196,0.551-0.196,0.924c0,0.355,0.065,0.654,0.196,0.896c0.13,0.242,0.308,0.434,0.531,0.573
		c0.225,0.141,0.485,0.238,0.784,0.295c0.299,0.056,0.606,0.084,0.924,0.084c0.784,0,1.391-0.131,1.82-0.393
		c0.43-0.261,0.746-0.574,0.952-0.938c0.205-0.364,0.331-0.732,0.378-1.106c0.046-0.373,0.07-0.672,0.07-0.896v-1.484
		C299.037,62.497,298.827,62.613,298.575,62.697z"/>
	<path class="st0" d="M314.141,54.956v2.659h-2.912v7.168c0,0.673,0.112,1.12,0.336,1.345c0.225,0.224,0.672,0.336,1.345,0.336
		c0.224,0,0.438-0.01,0.644-0.028c0.205-0.019,0.401-0.046,0.588-0.084v3.08c-0.336,0.056-0.71,0.093-1.12,0.112
		c-0.41,0.019-0.812,0.027-1.204,0.027c-0.615,0-1.199-0.042-1.75-0.126s-1.036-0.247-1.456-0.489
		c-0.42-0.243-0.751-0.589-0.993-1.036c-0.243-0.448-0.364-1.036-0.364-1.765v-8.54h-2.408v-2.659h2.408v-4.341h3.976v4.341H314.141
		z"/>
	<path class="st0" d="M316.301,52.716v-3.276h3.976v3.276H316.301z M320.277,54.956v14.476h-3.976V54.956H320.277z"/>
	<path class="st0" d="M323.273,59.058c0.354-0.942,0.858-1.745,1.513-2.408c0.652-0.662,1.437-1.176,2.352-1.54
		c0.914-0.363,1.941-0.546,3.08-0.546s2.17,0.183,3.094,0.546c0.924,0.364,1.713,0.878,2.366,1.54
		c0.653,0.663,1.157,1.466,1.512,2.408s0.532,1.993,0.532,3.15s-0.178,2.202-0.532,3.136s-0.858,1.731-1.512,2.394
		c-0.653,0.663-1.442,1.172-2.366,1.526s-1.955,0.532-3.094,0.532s-2.166-0.178-3.08-0.532c-0.915-0.354-1.699-0.863-2.352-1.526
		c-0.654-0.662-1.158-1.46-1.513-2.394s-0.531-1.979-0.531-3.136S322.918,60,323.273,59.058z M326.885,63.901
		c0.112,0.551,0.303,1.046,0.574,1.484c0.271,0.438,0.63,0.789,1.078,1.05c0.447,0.262,1.008,0.393,1.68,0.393
		s1.236-0.131,1.694-0.393c0.457-0.261,0.821-0.611,1.092-1.05s0.462-0.934,0.574-1.484c0.111-0.55,0.168-1.115,0.168-1.693
		c0-0.579-0.057-1.148-0.168-1.708c-0.112-0.561-0.304-1.055-0.574-1.484c-0.271-0.429-0.635-0.779-1.092-1.05
		c-0.458-0.271-1.022-0.406-1.694-0.406s-1.232,0.136-1.68,0.406c-0.448,0.271-0.808,0.621-1.078,1.05
		c-0.271,0.43-0.462,0.924-0.574,1.484c-0.112,0.56-0.168,1.129-0.168,1.708C326.717,62.786,326.773,63.352,326.885,63.901z"/>
	<path class="st0" d="M343.969,54.956v2.016h0.084c0.504-0.84,1.157-1.451,1.96-1.834s1.624-0.574,2.464-0.574
		c1.064,0,1.937,0.145,2.618,0.435c0.682,0.289,1.218,0.69,1.61,1.203c0.392,0.514,0.667,1.14,0.825,1.877
		c0.159,0.737,0.238,1.554,0.238,2.449v8.904h-3.976v-8.176c0-1.194-0.188-2.086-0.561-2.674c-0.373-0.589-1.036-0.883-1.987-0.883
		c-1.083,0-1.867,0.322-2.353,0.967c-0.485,0.644-0.728,1.703-0.728,3.178v7.588h-3.977V54.956H343.969z"/>
	<path class="st0" d="M368.969,64.504c0.242,0.467,0.564,0.845,0.966,1.134c0.401,0.29,0.873,0.504,1.414,0.644
		c0.541,0.141,1.102,0.21,1.68,0.21c0.393,0,0.813-0.032,1.261-0.098c0.447-0.065,0.868-0.191,1.26-0.378s0.719-0.443,0.979-0.77
		c0.262-0.327,0.393-0.742,0.393-1.246c0-0.542-0.173-0.98-0.519-1.316c-0.345-0.336-0.798-0.616-1.357-0.84
		c-0.561-0.224-1.195-0.42-1.904-0.588c-0.71-0.168-1.428-0.354-2.156-0.561c-0.746-0.187-1.475-0.415-2.184-0.686
		c-0.71-0.271-1.344-0.62-1.904-1.05c-0.56-0.43-1.013-0.967-1.357-1.61c-0.346-0.644-0.519-1.423-0.519-2.338
		c0-1.026,0.22-1.918,0.658-2.674s1.013-1.387,1.722-1.891c0.71-0.504,1.513-0.877,2.408-1.119c0.896-0.243,1.792-0.364,2.688-0.364
		c1.045,0,2.048,0.116,3.01,0.35c0.961,0.233,1.815,0.611,2.562,1.134c0.747,0.523,1.34,1.19,1.778,2.002
		c0.438,0.813,0.658,1.797,0.658,2.954h-4.256c-0.038-0.597-0.164-1.092-0.378-1.483c-0.215-0.393-0.5-0.7-0.854-0.924
		c-0.354-0.225-0.761-0.383-1.218-0.477c-0.458-0.093-0.957-0.14-1.498-0.14c-0.354,0-0.71,0.037-1.064,0.111
		c-0.354,0.075-0.677,0.206-0.966,0.393s-0.527,0.42-0.714,0.7c-0.187,0.279-0.28,0.635-0.28,1.063c0,0.393,0.075,0.71,0.225,0.952
		c0.149,0.243,0.443,0.467,0.882,0.672c0.438,0.206,1.045,0.411,1.82,0.616c0.774,0.206,1.787,0.467,3.038,0.784
		c0.373,0.074,0.891,0.21,1.554,0.406c0.662,0.195,1.32,0.509,1.974,0.938c0.653,0.43,1.218,1.004,1.694,1.722
		c0.476,0.719,0.714,1.639,0.714,2.759c0,0.914-0.178,1.764-0.532,2.548s-0.882,1.461-1.582,2.029c-0.7,0.57-1.567,1.014-2.604,1.33
		c-1.036,0.317-2.236,0.477-3.599,0.477c-1.102,0-2.17-0.136-3.206-0.406c-1.035-0.271-1.95-0.695-2.743-1.274
		c-0.794-0.578-1.424-1.315-1.891-2.212c-0.467-0.896-0.69-1.96-0.672-3.191h4.256C368.605,63.468,368.726,64.037,368.969,64.504z"
		/>
	<path class="st0" d="M390.105,57.56c-0.635,0-1.167,0.145-1.596,0.434c-0.43,0.29-0.779,0.663-1.05,1.12
		c-0.271,0.458-0.462,0.962-0.574,1.513s-0.168,1.097-0.168,1.638c0,0.522,0.056,1.055,0.168,1.596
		c0.112,0.542,0.294,1.032,0.546,1.471s0.593,0.798,1.022,1.077c0.429,0.28,0.951,0.421,1.567,0.421
		c0.952,0,1.685-0.267,2.198-0.799c0.514-0.531,0.835-1.246,0.966-2.142h3.836c-0.262,1.923-1.008,3.388-2.24,4.396
		c-1.231,1.009-2.81,1.513-4.731,1.513c-1.083,0-2.077-0.183-2.982-0.546c-0.905-0.364-1.675-0.873-2.31-1.526
		s-1.13-1.433-1.484-2.338s-0.531-1.899-0.531-2.982c0-1.12,0.163-2.16,0.489-3.122c0.327-0.961,0.808-1.792,1.442-2.491
		c0.635-0.7,1.409-1.246,2.324-1.639c0.914-0.392,1.96-0.588,3.136-0.588c0.858,0,1.685,0.112,2.478,0.336
		c0.794,0.225,1.503,0.565,2.128,1.022c0.626,0.457,1.135,1.026,1.526,1.708c0.393,0.682,0.616,1.488,0.672,2.422h-3.892
		C392.783,58.391,391.803,57.56,390.105,57.56z"/>
	<path class="st0" d="M399.301,52.716v-3.276h3.976v3.276H399.301z M403.277,54.956v14.476h-3.976V54.956H403.277z"/>
	<path class="st0" d="M410.445,65.96c0.598,0.578,1.456,0.868,2.576,0.868c0.803,0,1.493-0.201,2.072-0.603
		c0.578-0.401,0.934-0.826,1.064-1.274h3.5c-0.561,1.736-1.419,2.979-2.576,3.725c-1.158,0.747-2.558,1.12-4.2,1.12
		c-1.139,0-2.166-0.183-3.08-0.546c-0.915-0.364-1.689-0.883-2.324-1.555s-1.125-1.474-1.47-2.407
		c-0.346-0.934-0.519-1.96-0.519-3.08c0-1.083,0.178-2.091,0.532-3.024s0.858-1.74,1.513-2.422c0.652-0.682,1.432-1.218,2.338-1.61
		c0.905-0.392,1.908-0.588,3.01-0.588c1.231,0,2.305,0.238,3.22,0.714c0.914,0.477,1.666,1.116,2.254,1.918
		c0.588,0.803,1.013,1.718,1.274,2.744c0.261,1.027,0.354,2.101,0.28,3.22h-10.444C409.521,64.447,409.847,65.381,410.445,65.96z
		 M414.939,58.344c-0.476-0.522-1.199-0.784-2.17-0.784c-0.635,0-1.162,0.107-1.582,0.322s-0.756,0.48-1.008,0.798
		s-0.43,0.653-0.532,1.008s-0.163,0.672-0.182,0.952h6.468C415.746,59.632,415.415,58.866,414.939,58.344z"/>
	<path class="st0" d="M425.969,54.956v2.016h0.084c0.504-0.84,1.157-1.451,1.96-1.834s1.624-0.574,2.464-0.574
		c1.064,0,1.937,0.145,2.618,0.435c0.682,0.289,1.218,0.69,1.61,1.203c0.392,0.514,0.667,1.14,0.825,1.877
		c0.159,0.737,0.238,1.554,0.238,2.449v8.904h-3.976v-8.176c0-1.194-0.188-2.086-0.561-2.674c-0.373-0.589-1.036-0.883-1.987-0.883
		c-1.083,0-1.867,0.322-2.353,0.967c-0.485,0.644-0.728,1.703-0.728,3.178v7.588h-3.977V54.956H425.969z"/>
	<path class="st0" d="M446.105,57.56c-0.635,0-1.167,0.145-1.596,0.434c-0.43,0.29-0.779,0.663-1.05,1.12
		c-0.271,0.458-0.462,0.962-0.574,1.513s-0.168,1.097-0.168,1.638c0,0.522,0.056,1.055,0.168,1.596
		c0.112,0.542,0.294,1.032,0.546,1.471s0.593,0.798,1.022,1.077c0.429,0.28,0.951,0.421,1.567,0.421
		c0.952,0,1.685-0.267,2.198-0.799c0.514-0.531,0.835-1.246,0.966-2.142h3.836c-0.262,1.923-1.008,3.388-2.24,4.396
		c-1.231,1.009-2.81,1.513-4.731,1.513c-1.083,0-2.077-0.183-2.982-0.546c-0.905-0.364-1.675-0.873-2.31-1.526
		s-1.13-1.433-1.484-2.338s-0.531-1.899-0.531-2.982c0-1.12,0.163-2.16,0.489-3.122c0.327-0.961,0.808-1.792,1.442-2.491
		c0.635-0.7,1.409-1.246,2.324-1.639c0.914-0.392,1.96-0.588,3.136-0.588c0.858,0,1.685,0.112,2.478,0.336
		c0.794,0.225,1.503,0.565,2.128,1.022c0.626,0.457,1.135,1.026,1.526,1.708c0.393,0.682,0.616,1.488,0.672,2.422h-3.892
		C448.783,58.391,447.803,57.56,446.105,57.56z"/>
	<path class="st0" d="M459.445,65.96c0.598,0.578,1.456,0.868,2.576,0.868c0.803,0,1.493-0.201,2.072-0.603
		c0.578-0.401,0.934-0.826,1.064-1.274h3.5c-0.561,1.736-1.419,2.979-2.576,3.725c-1.158,0.747-2.558,1.12-4.2,1.12
		c-1.139,0-2.166-0.183-3.08-0.546c-0.915-0.364-1.689-0.883-2.324-1.555s-1.125-1.474-1.47-2.407
		c-0.346-0.934-0.519-1.96-0.519-3.08c0-1.083,0.178-2.091,0.532-3.024s0.858-1.74,1.513-2.422c0.652-0.682,1.432-1.218,2.338-1.61
		c0.905-0.392,1.908-0.588,3.01-0.588c1.231,0,2.305,0.238,3.22,0.714c0.914,0.477,1.666,1.116,2.254,1.918
		c0.588,0.803,1.013,1.718,1.274,2.744c0.261,1.027,0.354,2.101,0.28,3.22h-10.444C458.521,64.447,458.847,65.381,459.445,65.96z
		 M463.939,58.344c-0.476-0.522-1.199-0.784-2.17-0.784c-0.635,0-1.162,0.107-1.582,0.322s-0.756,0.48-1.008,0.798
		s-0.43,0.653-0.532,1.008s-0.163,0.672-0.182,0.952h6.468C464.746,59.632,464.415,58.866,463.939,58.344z"/>
	<path class="st0" d="M474.535,65.834c0.177,0.308,0.405,0.56,0.686,0.756c0.28,0.195,0.603,0.341,0.966,0.434
		c0.364,0.094,0.742,0.141,1.134,0.141c0.28,0,0.574-0.033,0.883-0.099c0.308-0.065,0.588-0.168,0.84-0.308
		c0.252-0.141,0.462-0.326,0.63-0.561c0.168-0.232,0.252-0.526,0.252-0.882c0-0.597-0.396-1.045-1.19-1.344
		c-0.793-0.299-1.899-0.598-3.317-0.896c-0.579-0.13-1.144-0.284-1.694-0.462c-0.551-0.177-1.041-0.41-1.47-0.699
		c-0.43-0.29-0.775-0.653-1.036-1.093c-0.262-0.438-0.392-0.975-0.392-1.609c0-0.934,0.182-1.698,0.546-2.296
		c0.363-0.598,0.844-1.068,1.441-1.414s1.27-0.588,2.017-0.729c0.746-0.14,1.512-0.21,2.296-0.21s1.544,0.075,2.282,0.225
		c0.736,0.149,1.395,0.401,1.974,0.756c0.578,0.354,1.06,0.826,1.442,1.414c0.382,0.588,0.61,1.33,0.686,2.226h-3.78
		c-0.056-0.766-0.346-1.283-0.868-1.554s-1.139-0.406-1.848-0.406c-0.224,0-0.467,0.014-0.728,0.042
		c-0.262,0.028-0.5,0.089-0.715,0.182c-0.215,0.094-0.396,0.229-0.546,0.406c-0.149,0.178-0.224,0.416-0.224,0.714
		c0,0.355,0.13,0.645,0.392,0.868s0.603,0.406,1.022,0.546c0.42,0.141,0.9,0.267,1.442,0.378c0.541,0.112,1.092,0.234,1.651,0.364
		c0.578,0.131,1.144,0.29,1.694,0.476c0.55,0.188,1.04,0.435,1.47,0.742c0.43,0.309,0.774,0.691,1.036,1.148
		c0.261,0.457,0.392,1.021,0.392,1.693c0,0.952-0.191,1.75-0.573,2.395c-0.383,0.644-0.883,1.162-1.498,1.554
		c-0.616,0.393-1.321,0.668-2.114,0.826c-0.794,0.158-1.601,0.238-2.422,0.238c-0.84,0-1.662-0.084-2.464-0.252
		c-0.803-0.168-1.518-0.448-2.143-0.84c-0.625-0.393-1.139-0.91-1.54-1.555c-0.401-0.644-0.62-1.451-0.658-2.422h3.78
		C474.269,65.157,474.358,65.525,474.535,65.834z"/>
</g>
<g>
</g>
<g>
</g>
<g>
</g>
<g>
</g>
<g>
</g>
<g>
</g>
<g>
</g>
<g>
</g>
<g>
</g>
<g>
</g>
<g>
</g>
<g>
</g>
<g>
</g>
<g>
</g>
<g>
</g>
</svg>
