<?xml version="1.0" encoding="utf-8"?>
<!-- Generator: Adobe Illustrator 21.0.2, SVG Export Plug-In . SVG Version: 6.00 Build 0)  -->
<svg version="1.1" xmlns="http://www.w3.org/2000/svg" xmlns:xlink="http://www.w3.org/1999/xlink" x="0px" y="0px"
	 viewBox="0 0 67 67" style="enable-background:new 0 0 67 67;" xml:space="preserve">
<style type="text/css">
	.st0{fill:#333333;}
</style>
<g id="Layer_3">
</g>
<g id="Layer_4">
	<path class="st0" d="M33.5,0C15.028,0,0,15.028,0,33.5S15.028,67,33.5,67S67,51.972,67,33.5S51.972,0,33.5,0z M63.859,30.602
		L36.398,3.141C50.907,4.515,62.485,16.093,63.859,30.602z M5.986,35h23.811c0.594,1.465,2.026,2.5,3.703,2.5s3.109-1.035,3.703-2.5
		h23.811L33.5,62.514L5.986,35z M61.014,32H37.203c-0.594-1.465-2.026-2.5-3.703-2.5s-3.109,1.035-3.703,2.5H5.986L33.5,4.486
		L61.014,32z M30.602,3.141L3.141,30.602C4.515,16.093,16.093,4.515,30.602,3.141z M3.141,36.398l27.461,27.461
		C16.093,62.485,4.515,50.907,3.141,36.398z M36.398,63.859l27.461-27.461C62.485,50.907,50.907,62.485,36.398,63.859z"/>
</g>
</svg>
