<?xml version="1.0" encoding="utf-8"?>
<!-- Generator: Adobe Illustrator 20.0.0, SVG Export Plug-In . SVG Version: 6.00 Build 0)  -->
<svg version="1.1" id="Layer_2" xmlns="http://www.w3.org/2000/svg" xmlns:xlink="http://www.w3.org/1999/xlink" x="0px" y="0px"
	 viewBox="0 0 278 247" style="enable-background:new 0 0 278 247;" xml:space="preserve">
<style type="text/css">
	.st0{fill:#9C4399;}
	.st1{fill:#363636;}
	.st2{fill:#903E94;}
	.st3{fill:#963E97;}
	.st4{fill:#832A90;}
	.st5{fill:#642874;}
	.st6{fill:#732A82;}
</style>
<polygon class="st0" points="213,37 245,37 245,70 "/>
<polygon class="st1" points="245,77 212,110 212,176 245,143 "/>
<rect x="106" y="77" class="st1" width="33" height="33"/>
<rect x="172" y="143" class="st1" width="33" height="33"/>
<polygon class="st1" points="99,110 99,77 66,77 33,110 33,176 99,176 99,143 66,143 66,110 "/>
<rect x="106" y="143" class="st1" width="33" height="33"/>
<rect x="172" y="77" class="st1" width="33" height="33"/>
<polygon class="st2" points="172,143 139,143 139,176 106,176 106,143 139,110 172,110 172,77 205,77 205,110 "/>
<rect x="172" y="77" class="st3" width="33" height="33"/>
<rect x="139" y="110" class="st4" width="33" height="33"/>
<rect x="106" y="143" class="st5" width="33" height="33"/>
<polygon class="st6" points="106,143 139,143 139,110 "/>
</svg>
