<?xml version="1.0" encoding="UTF-8" standalone="no"?>
<svg xmlns:svg="http://www.w3.org/2000/svg" xmlns="http://www.w3.org/2000/svg" version="1.0" width="630" height="185" id="svg2" xml:space="preserve"><defs id="defs5"/><g transform="matrix(1.25,0,0,-1.25,-97.558542,891.88048)" id="g11"><path d="M 246.51399,692.91406 L 277.20233,692.91406 L 277.20233,582.87234 L 246.51399,582.87234 L 246.51399,692.91406 z" id="path13" style="fill:#006699;fill-opacity:1;fill-rule:nonzero;stroke:none"/><path d="M 293.31279,582.876 L 293.31279,692.91406 L 377.7039,692.91406 L 377.7039,671.57888 L 323.99747,671.57888 L 323.99747,648.86877 L 373.4068,648.86877 L 373.4068,627.52992 L 323.99747,627.52992 L 323.99747,604.21118 L 377.7039,604.21118 L 377.7039,582.876 L 293.31279,582.876" id="path15" style="fill:#006699;fill-opacity:1;fill-rule:nonzero;stroke:none"/><path d="M 394.88497,582.876 L 394.88497,692.91406 L 479.27608,692.91406 L 479.27608,671.57888 L 425.57331,671.57888 L 425.57331,648.86877 L 474.97898,648.86877 L 474.97898,627.52992 L 425.57331,627.52992 L 425.57331,604.21118 L 479.27608,604.21118 L 479.27608,582.876 L 394.88497,582.876" id="path17" style="fill:#006699;fill-opacity:1;fill-rule:nonzero;stroke:none"/><path d="M 496.46081,582.876 L 496.46081,692.91406 L 580.85192,692.91406 L 580.85192,671.57888 L 527.14549,671.57888 L 527.14549,648.86877 L 576.55482,648.86877 L 576.55482,627.52992 L 527.14549,627.52992 L 527.14549,604.21118 L 580.85192,604.21118 L 580.85192,582.876 L 496.46081,582.876" id="path19" style="fill:#006699;fill-opacity:1;fill-rule:nonzero;stroke:none"/><path d="M 162.4382,702.78786 C 166.99195,697.04617 171.78403,691.03683 176.71543,685.59945 L 188.88444,672.97213 C 199.89851,662.10106 211.59088,652.51324 224.13387,644.03637 L 224.54084,643.97037 C 226.13942,642.95476 227.22836,641.13252 227.39702,639.27729 C 227.33103,635.25884 222.67461,634.44855 220.22541,632.289 C 195.85439,614.73028 174.03157,592.98446 156.8285,568.77477 L 155.43891,567.39251 C 154.04199,566.54555 152.24175,566.88653 150.77883,567.39251 C 148.90893,567.99747 148.70728,570.02503 147.51567,571.2753 C 143.70988,577.14898 138.84814,582.65235 134.70137,588.12272 C 132.25216,590.58659 130.21361,593.18611 127.69841,595.8223 C 113.55684,611.21781 97.648032,624.72508 81.02793,636.10213 C 79.836327,637.28273 78.850047,638.83731 79.396351,640.72921 C 79.90599,642.82276 82.351525,644.06936 83.98677,645.35263 C 104.75365,659.50153 123.78996,677.96953 139.86742,697.75746 L 149.89521,710.72209 C 151.22247,711.73404 152.98971,712.57733 154.62129,711.8697 C 155.36925,711.66804 156.21987,710.99341 156.89817,710.58644 L 162.4382,702.78786" id="path21" style="fill:#006699;fill-opacity:1;fill-rule:nonzero;stroke:none"/><path d="M 148.09497,691.67846 C 143.4019,688.33464 138.9508,684.92482 134.46304,681.07503 C 134.08907,680.84038 133.64909,680.3344 133.41077,680.09608 C 122.97233,670.84558 112.64022,660.71513 104.21101,650.04571 C 101.83148,646.97321 99.316275,643.97037 98.395991,640.32223 C 98.362993,638.36434 98.670976,636.5421 99.723253,635.05718 C 106.86187,624.48676 116.31036,614.39297 125.72585,605.71444 C 133.85074,598.52083 141.67132,590.62325 150.94749,585.79451 C 154.00899,584.37559 157.44447,586.02917 159.99267,587.8184 C 172.60165,596.63259 183.85404,607.67233 194.52713,619.08238 C 199.45487,625.09539 205.09756,630.59876 207.88774,637.48805 C 208.6357,640.21957 207.4441,642.55145 206.08384,644.612 C 197.75729,656.42903 187.62684,667.60443 176.71543,677.66521 L 176.00047,678.07219 C 172.05901,681.85232 167.57126,685.56645 163.25582,688.84061 C 159.14204,692.32009 152.98971,695.46225 148.09497,691.67846" id="path23" style="fill:#ffffff;fill-opacity:1;fill-rule:nonzero;stroke:none"/><path d="M 149.89521,688.70862 C 134.36038,678.03919 119.40486,663.58598 107.37151,648.83211 C 104.92231,645.25363 100.63987,641.84382 102.57943,637.08107 C 103.97269,633.5686 107.10019,631.03507 109.10575,627.93324 C 120.90078,613.85033 134.83702,600.71704 149.38557,590.14661 C 155.77623,586.09883 160.32998,592.64714 165.29438,595.65365 C 175.45783,603.62088 184.87332,613.31136 193.77917,622.73052 L 193.77917,622.96884 C 197.35031,627.25494 201.12311,631.47504 203.90962,636.10213 C 205.13423,638.36434 204.52193,641.46984 203.16167,643.4644 C 192.38591,658.96256 178.24435,672.66782 163.25582,684.65717 C 159.38036,687.35569 154.89261,692.08177 149.89521,688.70862" id="path25" style="fill:#006699;fill-opacity:1;fill-rule:nonzero;stroke:none"/><path d="M 153.05571,678.98148 L 151.69911,674.66238 L 144.89781,655.31442 C 146.59906,655.14577 148.70728,655.31442 150.37185,655.14577 L 150.37185,654.97711 L 149.38557,633.09929 L 149.55423,632.86097 C 151.73211,632.65931 154.44896,632.55665 156.65985,632.92697 L 156.65985,633.26795 L 155.77623,654.50413 L 155.91189,655.21176 L 161.89556,655.31442 C 158.90372,663.14967 156.01455,671.04724 153.22803,678.98148 L 153.05571,678.98148" id="path27" style="fill:#ffffff;fill-opacity:1;fill-rule:nonzero;stroke:none"/><path d="M 129.90929,648.66345 C 126.09983,646.77155 120.4938,643.90071 121.1061,638.70165 C 121.92006,635.86747 125.01456,634.04157 127.46009,632.86097 C 140.98936,626.95062 158.93672,626.74897 173.21395,631.17073 C 176.74843,632.52365 181.4745,634.48155 182.1198,638.77132 C 182.0868,642.31313 178.31401,644.54234 175.59349,645.8916 L 175.59349,646.06392 C 176.54677,646.43424 177.63205,646.77155 178.61833,646.87421 L 178.61833,646.97321 C 173.82625,647.81649 169.20283,649.06676 164.57942,650.28403 C 165.4667,648.25647 166.112,646.12992 166.85629,644.03637 C 168.25322,644.47634 169.67947,644.81366 171.17539,645.01531 C 173.62093,644.06936 177.12241,642.7201 177.46339,639.6806 C 177.73471,636.84642 174.60721,635.4605 172.63832,634.31289 C 162.16688,630.53276 150.37185,630.15878 139.46044,633.02963 C 136.4356,633.97558 132.08351,635.18918 131.70953,639.00597 C 133.85074,644.03637 139.39078,645.08498 144.0142,646.29858 C 141.63466,647.81649 139.22212,649.16942 136.91225,650.856 C 134.43005,650.724 132.15317,649.6424 129.90929,648.66345" id="path29" style="fill:#ffffff;fill-opacity:1;fill-rule:nonzero;stroke:none"/><path d="M 149.24991,626.85163 C 148.84293,619.08238 148.74027,611.89244 148.16097,604.09386 C 151.25547,603.82254 154.75695,603.55122 158.0531,604.02786 L 157.06682,625.73702 L 156.89817,626.78196 C 154.38297,626.68297 152.00343,626.58031 149.24991,626.85163" id="path31" style="fill:#ffffff;fill-opacity:1;fill-rule:nonzero;stroke:none"/><path d="M 183.28941,579.43319 L 183.28941,581.42775 L 184.53967,581.42775 C 185.2143,581.42775 186.13825,581.36542 186.13825,580.51113 C 186.13825,579.59451 185.66528,579.43319 184.86599,579.43319 L 183.28941,579.43319 z M 183.28941,578.02893 L 184.12903,578.02893 L 186.05392,574.54945 L 188.16581,574.54945 L 186.03559,578.17193 C 187.1392,578.25259 188.04115,578.80256 188.04115,580.32781 C 188.04115,582.21971 186.77255,582.83201 184.62033,582.83201 L 181.5075,582.83201 L 181.5075,574.54945 L 183.28941,574.54945 L 183.28941,578.02893 z M 192.34192,578.6779 C 192.34192,583.5433 188.67545,586.37382 184.58,586.37382 C 180.46256,586.37382 176.79609,583.5433 176.79609,578.6779 C 176.79609,573.81616 180.46256,570.98931 184.58,570.98931 C 188.67545,570.98931 192.34192,573.81616 192.34192,578.6779 z M 190.10904,578.6779 C 190.10904,575.13976 187.57184,572.76022 184.58,572.76022 L 184.58,572.77855 C 181.5075,572.76022 179.02897,575.13976 179.02897,578.6779 C 179.02897,582.21971 181.5075,584.58091 184.58,584.58091 C 187.57184,584.58091 190.10904,582.21971 190.10904,578.6779" id="path33" style="fill:#006699;fill-opacity:1;fill-rule:nonzero;stroke:none"/></g></svg>