<?xml version="1.0" encoding="UTF-8"?>
<!DOCTYPE svg PUBLIC "-//W3C//DTD SVG 1.1//EN" "http://www.w3.org/Graphics/SVG/1.1/DTD/svg11.dtd">
<svg version="1.1" xmlns="http://www.w3.org/2000/svg" xmlns:xlink="http://www.w3.org/1999/xlink" x="0" y="0" width="406.554" height="366.986" viewBox="0, 0, 406.554, 366.986">
  <g id="Layer_1">
    <path d="M394.707,231.203 L193.778,363.481 L17,242.06 L240.443,148.549 z" fill-opacity="0" stroke="#1A1A1A" stroke-width="1.618" id="path6258"/>
    <g id="path15052-2-8-0">
      <path d="M88.693,75.039 L63.414,65.878 L38.136,85.907 L101.332,108.808 L101.332,123.403 L63.414,153.446 L25.496,139.705 L38.136,129.691 L63.414,138.851 L88.693,118.823 L25.496,95.921 L25.496,81.327 L63.414,51.284 L101.332,65.024" fill="#1A1A1A" fill-opacity="0.575"/>
      <path d="M88.693,75.039 L63.414,65.878 L38.136,85.907 L101.332,108.808 L101.332,123.403 L63.414,153.446 L25.496,139.705 L38.136,129.691 L63.414,138.851 L88.693,118.823 L25.496,95.921 L25.496,81.327 L63.414,51.284 L101.332,65.024" fill-opacity="0" stroke="#1A1A1A" stroke-width="2.284"/>
    </g>
    <g id="path46472-1-3" opacity="0.72">
      <path d="M25.496,86.192 L25.496,86.192 L67.627,52.81 L71.84,54.337 L25.496,91.057 L25.496,91.057" fill="#1A1A1A"/>
      <path d="M25.496,86.192 L25.496,86.192 L67.627,52.81 L71.84,54.337 L25.496,91.057 L25.496,91.057" fill-opacity="0" stroke="#1A1A1A" stroke-width="2.284"/>
    </g>
    <g id="path46476-18-7" opacity="0.72">
      <path d="M97.119,68.363 L59.201,54.622 L59.201,54.622 L54.988,57.96 L92.906,71.701 z" fill="#1A1A1A"/>
      <path d="M97.119,68.363 L59.201,54.622 L59.201,54.622 L54.988,57.96 L92.906,71.701 z" fill-opacity="0" stroke="#1A1A1A" stroke-width="2.284"/>
    </g>
    <g id="path46480-7-6" opacity="0.72">
      <path d="M101.332,113.673 L101.332,113.673 L25.496,86.192 L25.496,91.057 L101.332,118.538" fill="#1A1A1A"/>
      <path d="M101.332,113.673 L101.332,113.673 L25.496,86.192 L25.496,91.057 L101.332,118.538" fill-opacity="0" stroke="#1A1A1A" stroke-width="2.284"/>
    </g>
    <g id="path46486-6-8" opacity="0.72">
      <path d="M59.201,151.919 L59.201,151.919 L101.332,118.538 L101.332,113.673 L54.988,150.392 L54.988,150.392" fill="#1A1A1A"/>
      <path d="M59.201,151.919 L59.201,151.919 L101.332,118.538 L101.332,113.673 L54.988,150.392 L54.988,150.392" fill-opacity="0" stroke="#1A1A1A" stroke-width="2.284"/>
    </g>
    <g id="path46488-2-2" opacity="0.72">
      <path d="M71.84,146.77 L33.922,133.029 L33.922,133.029 L29.709,136.367 L29.709,136.367 L67.627,150.108" fill="#1A1A1A"/>
      <path d="M71.84,146.77 L33.922,133.029 L33.922,133.029 L29.709,136.367 L29.709,136.367 L67.627,150.108" fill-opacity="0" stroke="#1A1A1A" stroke-width="2.284"/>
    </g>
    <g id="path15054-9-8-2">
      <path d="M178.252,105.1 L148.829,128.413 L119.406,117.751 L119.406,45.554 L130.439,49.553 L130.439,109.008 L148.829,115.672 L167.218,101.102 L167.218,41.646 L178.252,32.904" fill="#1A1A1A" fill-opacity="0.575"/>
      <path d="M178.252,105.1 L148.829,128.413 L119.406,117.751 L119.406,45.554 L130.439,49.553 L130.439,109.008 L148.829,115.672 L167.218,101.102 L167.218,41.646 L178.252,32.904" fill-opacity="0" stroke="#1A1A1A" stroke-width="1.993"/>
    </g>
    <g id="path46492-8-7" opacity="0.72">
      <path d="M152.506,125.499 L123.083,114.836 L123.083,114.836 L123.083,46.887 L126.761,48.22 L126.761,111.922 L126.761,111.922 L156.184,122.585" fill="#1A1A1A"/>
      <path d="M152.506,125.499 L123.083,114.836 L123.083,114.836 L123.083,46.887 L126.761,48.22 L126.761,111.922 L126.761,111.922 L156.184,122.585" fill-opacity="0" stroke="#1A1A1A" stroke-width="1.993"/>
    </g>
    <g id="path46498-0-1" opacity="0.72">
      <path d="M145.151,127.08 L174.574,103.768 L174.574,103.768 L174.574,35.818 L170.896,38.732 L170.896,102.435 L170.896,102.435 L141.473,125.747" fill="#1A1A1A"/>
      <path d="M145.151,127.08 L174.574,103.768 L174.574,103.768 L174.574,35.818 L170.896,38.732 L170.896,102.435 L170.896,102.435 L141.473,125.747" fill-opacity="0" stroke="#1A1A1A" stroke-width="1.993"/>
    </g>
    <g id="path15056-3-6-1">
      <path d="M225.948,102.309 L215.644,98.575 L215.644,23.217 L225.948,26.951" fill="#1A1A1A" fill-opacity="0.575"/>
      <path d="M225.948,102.309 L215.644,98.575 L215.644,23.217 L225.948,26.951" fill-opacity="0" stroke="#1A1A1A" stroke-width="1.862"/>
    </g>
    <g id="path46504-8-0" opacity="0.72">
      <path d="M219.078,99.819 L219.078,24.461 L222.513,25.706 L222.513,101.064" fill="#1A1A1A"/>
      <path d="M219.078,99.819 L219.078,24.461 L222.513,25.706 L222.513,101.064" fill-opacity="0" stroke="#1A1A1A" stroke-width="1.862"/>
    </g>
    <path d="M67.775,233.496 L108.861,214.609 L113.729,218.387 L97.295,225.941 L121.637,244.829 L113.419,248.606 L89.078,229.719 L72.643,237.274 z" fill="#1A1A1A" id="path47120"/>
    <path d="M149.289,225.941 L149.289,225.941 L149.289,225.941 z" fill="#F752FF" id="path47144" opacity="0.72"/>
    <path d="M138.843,217.656 L123.133,225.212 L120.509,232.768 L141.432,247.88 L154.518,247.88 L170.229,240.324 L172.853,232.768 L151.93,217.656 L138.843,217.656 z M144.077,221.427 L165,236.539 L149.29,244.095 L128.366,228.983 L144.077,221.427 z" fill="#1A1A1A" id="path47261"/>
    <path d="M175.46,225.941 L206.062,248.606 L214.047,244.829 L214.047,244.829 L208.947,241.051 L183.445,222.164 z" fill="#1A1A1A" id="path47283-4"/>
    <g id="path47287-2">
      <path d="M199.416,214.609 L207.401,210.832 L207.401,210.832 L198.746,233.496 L193.646,229.719 z" fill="#1A1A1A"/>
      <path d="M199.416,214.609 L207.401,210.832 L207.401,210.832 L198.746,233.496 L193.646,229.719 z" fill-opacity="0" stroke="#1A1A1A" stroke-width="0.426"/>
    </g>
    <path d="M238.003,233.496 L200.619,228.53 L198.747,233.463 L198.746,233.496 L230.017,237.274 L230.017,237.274 L230.017,237.274 L230.017,237.274 L238.003,233.496" fill="#1A1A1A" id="path47303-9"/>
    <g id="g48411">
      <path d="M258.241,233.13 L256.562,214.243 L256.562,214.243 L264.077,210.466 L264.077,210.466 L265.756,229.353 L288.036,244.463 L288.036,244.463 L280.52,248.24 z" fill="#1A1A1A" id="path47337"/>
      <path d="M265.756,229.353 L234.015,225.575 L234.015,225.575 L226.5,229.353 L258.241,233.13 z" fill="#1A1A1A" id="path47339-4"/>
    </g>
    <path d="M314.362,221.93 L314.362,221.93 L314.362,221.93 z" fill="#F752FF" id="path47144-1" opacity="0.72"/>
    <path d="M299.153,217.909 L285.021,225.465 L283.963,233.021 L308.004,248.133 L321.09,248.133 L335.235,240.577 L336.294,233.021 L312.239,217.909 L299.153,217.909 z M305.168,221.681 L329.223,236.792 L315.078,244.348 L291.036,229.237 L305.168,221.681 z" fill="#1A1A1A" id="path47261-7"/>
    <g id="path4234">
      <path d="M259.743,120.487 L94.72,70.21 L94.277,70.537 L259.055,129.55 z" fill="#1A1A1A"/>
      <path d="M259.743,120.487 L94.72,70.21 L94.277,70.537 L259.055,129.55 z" fill-opacity="0" stroke="#1A1A1A" stroke-width="0.626"/>
    </g>
    <g id="g3108">
      <path d="M255.875,124.613 C256.714,126.058 257.554,127.502 258.393,128.947 C261.517,133.444 264.117,135.848 267.764,139.692 C271.166,142.69 273.456,145.688 277.969,148.686 C278.88,149.259 279.79,149.831 280.701,150.404 C282.102,151.183 283.503,151.963 284.904,152.742 C284.871,155.255 285.427,157.507 286.964,160.281 C287.767,162.589 288.569,164.896 289.372,167.204 C287.427,167.287 285.612,166.847 283.144,167.846 C277.014,171.861 282.909,177.817 287.043,178.812 C288.463,180.627 289.752,180.675 291.565,184.648 C291.74,187.988 292.57,190.281 295.428,192.704 C297.979,194.909 300.53,197.114 303.081,199.318 C308.771,203.136 311.387,204.729 319.563,204.556 C325.732,204.797 331.574,203.925 338.659,204.82 C343.475,206.391 347.769,207.568 352.323,211.298 C356.791,214.59 361.258,217.883 365.726,221.176 C375.209,209.249 384.691,197.321 394.174,185.394 C387.565,180.968 378.731,172.29 374.346,172.116 C370.746,171.92 367.735,172.444 363.677,171.006 C360.906,169.677 356.566,167.956 353.272,163.618 C346.403,156.25 336.525,142.929 333.189,145.047 C329.003,142.695 328.089,138.381 321.09,139.562 C318.28,137.277 315.404,135.777 311.155,136.566 C307.627,137.096 305.996,137.756 303.842,139.593 C300.537,139.683 298.043,140.341 293.146,139.315 C290.017,138.171 285.318,136.306 280.815,133.722 C278.204,132.272 275.527,130.43 272.916,128.914 C271.608,127.753 271.215,127.115 269.056,125.234 C267.557,123.643 265.535,123.163 263.97,122.291 C262.804,121.718 262.487,120.753 258.115,119.985 C255.275,120.285 254.856,121.5 255.875,124.613 z" fill-opacity="0" stroke="#1A1A1A" stroke-width="1.618" id="path9057-5"/>
      <path d="M281.635,169.594 C282.807,169.625 284.395,170.165 285.52,171.074 C286.256,174.001 286.419,177.135 286.445,178.476 L286.445,178.476" fill-opacity="0" stroke="#1A1A1A" stroke-width="1.618" id="path3028-5"/>
      <path d="M255.38,122.69 C259.358,124.217 260.468,124.124 260.468,124.124 C262.411,123.816 263.845,123.322 264.631,122.644" fill-opacity="0" stroke="#1A1A1A" stroke-width="1.618" id="path3030-8"/>
      <path d="M284.707,152.628 C291.511,158.515 291.511,158.515 291.511,158.515 C292.872,161.568 294.649,164.482 297.398,167.674 C298.202,171.721 299.384,173.883 300.407,176.832" fill-opacity="0" stroke="#1A1A1A" stroke-width="1.618" id="path3065-4"/>
      <g id="path3067-4">
        <path d="M289.332,167.143 C294.698,167.559 297.658,169.039 297.658,169.039" fill="#FACC2E"/>
        <path d="M289.332,167.143 C294.698,167.559 297.658,169.039 297.658,169.039" fill-opacity="0" stroke="#1A1A1A" stroke-width="1.618"/>
      </g>
    </g>
    <path d="M295.524,51.122 L286.605,57.124 L286.605,98.322 L304.443,106.898 L313.361,100.896 L313.361,59.699 z M295.524,61.422 L304.196,65.396 L304.443,96.599 L295.698,92.796 z" fill="#1A1A1A" id="path47375-5-0-7-2" opacity="0.84"/>
    <path d="M303.822,65.831 L313.929,59.322" fill="#302825" id="path8284-8-27-4-5-5"/>
    <path d="M286.445,98.416 L296.064,92.481" fill="#302825" id="path8284-8-2-9-9-8-6"/>
    <path d="M295.836,62.029 L285.551,57.105" fill="#302825" id="path8284-0-8-2-9-8-9"/>
    <path d="M315.295,101.284 L303.813,95.848" fill="#302825" id="path8284-0-8-0-2-1-2-9"/>
    <path d="M328.08,64.534 L337.061,68.613 L337.061,68.613 L337.061,120.465 L328.08,116.387 z" fill="#1A1A1A" id="path47373-9-9-7-1" opacity="0.84"/>
    <path d="M327.519,74.341 L338.158,68.802" fill="#302825" id="path8284-8-5-9-4-2-2"/>
    <path d="M360.985,80.222 L351.295,86.899 L351.295,131.187 L370.612,140.295 L380.366,133.988 L380.366,111.608 L360.985,101.71 L360.985,91.412 L380.366,100.417 L380.366,89.227 z M360.985,113.213 L370.675,117.875 L370.675,129.476 L361.048,124.834 z" fill="#1A1A1A" id="path47369-3-6-8-0" opacity="0.84"/>
    <path d="M369.772,96.197 L381.218,88.857" fill="#302825" id="path8284-8-8-0-2-7-8"/>
    <path d="M361.251,92.006 L350.874,87.004" fill="#282825" id="path8284-0-8-3-1-5-2-8"/>
    <path d="M381.355,134.08 L370.62,128.971" fill="#282825" id="path8284-0-8-3-8-3-1-0-3"/>
    <path d="M350.501,131.908 L362.187,124.341" fill="#282825" id="path8284-8-8-8-1-6-4-4"/>
    <path d="M370.357,118.269 L381.166,110.977" fill="#282825" id="path8284-8-8-8-9-5-9-3-5"/>
    <path d="M361.07,113.706 L349.422,108.113" fill="#282825" id="path8284-0-8-3-8-2-4-8-3-4"/>
    <path d="M258.928,35.193 L277.405,43.475 L277.405,43.475 L277.053,60.61 L258.749,73.392 L258.784,78.085 L277.151,86.911 L269.489,92.401 L250.734,83.043 L250.732,69.733 L268.607,57.537 L268.667,48.844 L258.894,44.177 L258.926,58.127 L250.822,54.587 L250.855,40.474 z" fill="#1A1A1A" id="path47375-6-5-6-2-4" opacity="0.84"/>
    <path d="M267.485,49.971 L278.482,43.109" fill="#302825" id="path8284-1-7-5-8"/>
    <path d="M250.693,83.005 L259.139,77.848" fill="#302825" id="path8284-9-4-9-3-3"/>
    <path d="M259.321,44.855 L249.519,40.233" fill="#302825" id="path8284-0-5-4-2-2"/>
    <path d="M259.091,73.591 L250.689,69.795" fill="#302825" id="path8284-0-0-4-7-6-1"/>
    <path d="M250.775,54.575 L259.154,49.416" fill="#302825" id="path8284-8-5-1-2-5-1-98"/>
  </g>
</svg>
